<?xml version="1.0" standalone="no"?>
<!DOCTYPE svg PUBLIC "-//W3C//DTD SVG 20010904//EN"
 "http://www.w3.org/TR/2001/REC-SVG-20010904/DTD/svg10.dtd">
<svg version="1.0" xmlns="http://www.w3.org/2000/svg"
 width="1024.000000pt" height="1024.000000pt" viewBox="0 0 1024.000000 1024.000000"
 preserveAspectRatio="xMidYMid meet">

<g transform="translate(0.000000,1024.000000) scale(0.100000,-0.100000)"
fill="#000000" stroke="none">
<path d="M6122 9404 c-20 -14 -22 -23 -22 -112 0 -53 -3 -202 -7 -330 -6 -233
-6 -234 -30 -243 -23 -8 -23 -10 -23 -169 0 -149 -1 -160 -19 -160 -23 0 -31
-50 -31 -192 0 -92 -2 -100 -20 -105 -22 -6 -35 -42 -27 -73 4 -15 -1 -20 -22
-22 -24 -3 -26 -7 -29 -59 -3 -52 -5 -56 -23 -52 -28 8 -40 -14 -32 -59 5 -36
4 -38 -26 -44 -30 -6 -31 -9 -31 -55 l0 -49 -129 0 -130 0 -48 -41 c-26 -23
-51 -47 -55 -53 -4 -6 -8 -86 -8 -178 0 -93 -3 -168 -7 -168 -5 0 -35 9 -68
19 -173 54 -448 54 -653 1 -68 -18 -126 -30 -129 -27 -3 4 -10 52 -17 109 -10
96 -12 103 -36 108 -27 6 -37 32 -39 93 -1 30 -5 37 -21 37 -18 0 -20 7 -20
69 0 80 -1 81 -91 81 l-59 0 0 -50 0 -50 -40 0 c-33 0 -40 4 -40 19 0 22 -26
31 -91 31 l-46 0 -12 238 c-7 130 -15 240 -18 245 -2 4 -10 7 -18 7 -9 0 -16
16 -20 43 -5 32 -14 48 -36 62 -22 15 -29 28 -29 53 0 17 -4 32 -9 32 -18 0
-41 32 -41 57 0 20 -4 24 -20 20 -18 -5 -20 0 -20 36 0 23 -3 72 -6 109 -5 53
-10 67 -25 71 -17 5 -19 17 -19 136 0 98 3 131 13 131 6 0 4 5 -6 11 -17 10
-18 26 -16 199 3 209 1 220 -57 220 -59 0 -64 -14 -64 -179 0 -81 -3 -230 -7
-329 -5 -164 -8 -182 -24 -182 -24 0 -29 -20 -29 -115 0 -79 -1 -84 -22 -87
-19 -2 -24 -10 -26 -46 -3 -35 -8 -45 -28 -52 -18 -7 -24 -17 -24 -40 0 -29
-2 -30 -45 -30 l-45 0 -1 -52 c0 -29 -6 -168 -12 -308 l-12 -255 -53 -10 c-30
-6 -60 -18 -67 -28 -10 -13 -28 -17 -89 -17 l-76 0 0 -52 c0 -58 -9 -81 -31
-78 -53 8 -59 2 -59 -55 0 -54 -1 -55 -29 -55 -34 0 -41 -14 -41 -76 0 -48 -1
-50 -30 -32 -27 17 -40 1 -47 -53 -8 -71 -7 -71 -65 -45 -29 13 -76 29 -105
35 -64 16 -66 22 -67 202 -1 122 -3 139 -21 159 -34 37 -74 53 -125 48 -56 -6
-93 -31 -116 -78 -14 -29 -15 -41 -5 -77 12 -45 13 -178 2 -226 -5 -23 -15
-32 -56 -45 -75 -26 -140 -67 -201 -129 -55 -56 -132 -178 -120 -191 12 -11
40 13 63 54 129 228 408 317 701 222 34 -11 69 -26 76 -34 17 -16 9 -59 -8
-46 -22 17 -48 23 -43 10 3 -10 -19 -12 -102 -10 -58 1 -126 -1 -151 -5 -43
-8 -45 -10 -56 -53 -8 -36 -12 -40 -18 -24 -6 12 -10 15 -13 7 -3 -7 -11 -13
-19 -13 -9 0 -12 -4 -9 -10 3 -6 -1 -7 -9 -4 -9 3 -16 2 -16 -3 0 -5 -27 -15
-61 -22 -34 -7 -59 -14 -57 -16 2 -3 36 2 74 10 100 22 240 30 267 17 12 -6
36 -13 52 -14 44 -4 -193 -56 -1070 -233 -395 -79 -434 -93 -507 -174 -89 -98
-126 -257 -99 -417 15 -87 72 -353 206 -954 58 -261 105 -482 105 -491 0 -13
-7 -14 -49 -6 -168 35 -400 -139 -427 -319 -14 -96 48 -205 142 -247 l40 -18
37 -200 37 -200 -28 -42 c-43 -64 -52 -93 -52 -161 0 -202 234 -254 328 -72
51 101 25 248 -54 299 -36 24 -34 11 -50 288 l-6 106 55 31 c30 17 70 49 90
72 l36 42 10 -38 c27 -105 179 -767 189 -826 2 -17 -4 -37 -19 -58 l-24 -32
-13 29 c-12 27 -12 26 -7 -14 6 -36 2 -48 -33 -100 -78 -114 -84 -146 -80
-424 3 -239 4 -245 29 -299 33 -72 80 -125 149 -169 71 -45 2846 -1432 2942
-1470 189 -74 314 -95 568 -95 350 0 472 34 955 269 110 54 272 132 360 175
693 336 2155 1059 2216 1096 65 39 119 95 149 153 40 79 50 146 50 331 0 197
-10 271 -47 347 l-26 52 12 157 13 156 43 53 c133 164 161 403 70 602 l-25 55
17 169 17 169 46 0 c192 0 367 162 387 358 4 37 9 50 16 43 22 -22 74 -12 97
17 28 35 23 78 -19 168 -86 184 -239 323 -385 350 l-38 7 6 46 c3 25 26 264
51 531 25 267 52 554 60 639 22 224 21 247 -12 280 -25 25 -41 29 -163 45 -74
9 -143 19 -152 22 -16 5 -18 18 -18 97 0 90 -11 126 -43 148 -5 4 -5 15 2 26
6 12 13 128 17 277 l7 256 80 40 c44 22 86 40 93 40 20 0 17 23 -7 67 -36 66
-39 67 -105 44 -32 -12 -60 -21 -61 -21 -2 0 -3 35 -3 78 0 157 -26 193 -178
252 -59 23 -152 60 -206 81 -114 45 -137 46 -278 19 -57 -10 -173 -31 -258
-45 -104 -17 -172 -34 -205 -50 l-50 -25 -22 25 -22 25 27 44 c16 24 34 62 41
84 10 28 23 44 45 55 24 11 35 26 45 57 23 79 99 189 165 239 99 75 117 96
108 122 -10 27 -150 84 -185 75 -29 -7 -144 -110 -152 -136 -4 -11 -11 -18
-16 -15 -10 7 -65 -29 -196 -128 -94 -71 -103 -74 -183 -62 -41 6 -48 4 -72
-22 -32 -33 -78 -117 -78 -141 0 -9 14 -30 31 -48 30 -31 30 -32 15 -63 -18
-35 -32 -38 -63 -16 -37 26 -196 102 -253 121 -188 62 -361 -34 -360 -200 1
-101 83 -196 236 -273 54 -27 129 -58 167 -69 41 -11 67 -24 67 -33 0 -9 -8
-12 -25 -9 -14 3 -31 0 -39 -6 -29 -22 -61 -127 -57 -189 1 -20 91 -67 127
-67 28 0 39 -14 57 -75 35 -119 86 -190 161 -223 l41 -19 -5 -129 -5 -129 -72
-5 c-96 -7 -114 -24 -122 -116 l-6 -68 -65 3 c-36 1 -67 7 -71 12 -3 5 -3 119
-1 252 l5 243 -36 50 c-46 65 -87 174 -87 235 0 52 -16 75 -25 34 -17 -84 -13
-78 -53 -71 -20 3 -69 6 -107 6 l-71 0 -9 33 c-7 22 -17 33 -32 35 -21 3 -23
9 -23 57 0 45 -3 55 -20 60 -16 5 -20 15 -20 49 0 25 -6 49 -14 55 -7 6 -16
29 -20 50 -5 31 -11 40 -31 45 l-25 6 0 155 c0 84 -4 156 -9 159 -5 4 -7 72
-4 162 6 148 5 156 -14 169 -20 14 -21 24 -22 337 -1 317 -1 323 -22 341 -26
21 -48 22 -77 1z m52 -351 c0 -287 -2 -322 -17 -337 -9 -10 -20 -29 -24 -44
-3 -15 -7 -200 -7 -412 l-1 -385 45 -6 45 -5 -40 -5 -40 -4 -3 -122 -3 -123
33 -1 c29 -2 30 -3 7 -6 l-27 -4 -7 -322 c-4 -177 -5 -395 -3 -483 l3 -161
-45 66 -44 66 -1 270 c0 249 -1 270 -17 273 -17 3 -18 -14 -18 -245 l-1 -248
-39 45 c-22 24 -41 49 -41 55 -1 5 -1 105 1 221 2 207 2 211 -19 217 -20 5
-21 2 -23 -201 l-3 -205 -37 34 -37 35 6 167 c6 166 6 167 -15 167 -22 0 -22
-3 -22 -155 l0 -156 -45 31 -45 31 0 199 0 200 40 0 39 0 3 68 c3 64 4 67 27
64 23 -2 23 -1 16 63 l-7 65 31 6 c30 6 31 9 31 55 0 47 1 49 28 49 27 0 27 1
27 57 0 52 2 57 25 63 20 5 26 13 28 44 2 27 9 40 21 43 21 5 31 72 31 205 0
70 2 79 18 76 14 -3 18 8 23 62 4 36 7 113 8 173 l1 107 25 0 25 0 0 328 c0
328 3 359 35 349 7 -3 10 -111 9 -324z m-2454 -65 c0 -178 3 -361 6 -408 3
-47 6 -114 7 -150 2 -57 5 -65 22 -65 16 0 21 -8 23 -37 2 -23 9 -38 18 -40
13 -3 15 -45 14 -315 0 -297 0 -313 18 -313 17 0 19 -19 30 -267 7 -148 18
-366 24 -485 l12 -218 -57 -114 c-31 -63 -69 -155 -84 -205 -15 -50 -30 -91
-34 -91 -10 0 -38 752 -38 1048 -1 174 -3 202 -16 202 -9 0 -19 -8 -22 -17 -4
-9 -1 -294 6 -632 10 -543 16 -719 35 -1046 3 -53 2 -68 -3 -45 -5 19 -9 29
-10 23 0 -7 -12 -13 -25 -13 -13 0 -27 6 -29 13 -4 9 -8 9 -14 0 -4 -6 -28
-12 -53 -14 -25 -2 -48 -8 -52 -14 -4 -5 -8 6 -9 25 -2 33 -2 32 -9 -10 -11
-73 -11 1112 1 1395 5 142 8 270 4 282 -3 13 -12 23 -21 23 -14 0 -15 -18 -12
-145 1 -80 3 -145 2 -145 0 0 -28 11 -62 25 -63 26 -132 33 -132 14 0 -29 20
-45 61 -48 24 -1 44 -3 46 -4 4 -4 -16 -1314 -22 -1452 -7 -170 -15 -258 -23
-251 -3 4 -5 28 -5 54 l1 47 -7 -42 c-4 -24 -11 -46 -15 -50 -4 -5 -4 5 0 21
5 20 3 27 -4 22 -6 -4 -13 7 -17 26 -3 18 -18 85 -32 148 -60 274 -58 260 -39
260 20 0 25 41 33 237 5 145 4 176 -8 184 -8 5 -17 9 -20 9 -6 0 -29 -230 -30
-310 l-1 -55 -23 95 c-14 52 -45 191 -71 309 -46 213 -46 214 -36 315 7 59 7
105 2 110 -12 12 -41 0 -39 -16 1 -7 1 -29 0 -47 l-1 -35 -30 47 c-16 26 -50
62 -75 79 -25 18 -45 37 -45 42 0 6 5 43 10 81 5 39 10 97 11 130 3 83 5 86
48 79 l37 -6 -4 63 -5 62 36 -6 36 -6 3 62 3 62 43 -1 42 -1 0 64 0 63 65 0
65 0 0 -47 c0 -81 -7 -94 -46 -87 -18 3 -37 4 -42 0 -5 -3 -6 -28 -2 -55 3
-27 3 -48 -2 -45 -4 3 -8 -2 -8 -10 0 -9 5 -16 10 -16 6 0 12 -1 15 -2 32 -10
95 -13 96 -4 1 6 4 79 8 161 l6 150 60 0 60 0 6 90 c4 50 7 142 8 206 1 64 4
164 7 222 l7 106 41 3 c36 3 41 6 41 28 0 34 12 50 38 50 20 0 22 5 22 47 0
42 3 48 23 51 21 3 22 8 22 97 l0 94 28 3 27 3 3 338 c2 326 3 337 22 337 18
0 19 -10 20 -322z m4148 -5 c28 -9 52 -20 52 -23 0 -3 -21 -18 -48 -34 -90
-56 -125 -90 -179 -173 -29 -46 -53 -87 -53 -93 0 -5 -4 -10 -10 -10 -5 0 -7
-8 -4 -17 5 -15 4 -16 -5 -3 -7 10 -11 11 -11 3 0 -7 -12 -14 -27 -14 l-28 -1
30 -8 30 -7 -40 -7 c-22 -4 -47 -11 -55 -15 -20 -10 -82 -92 -110 -144 -12
-23 -41 -78 -66 -122 -24 -44 -44 -85 -44 -91 0 -6 11 -17 25 -24 15 -8 24
-19 20 -28 -4 -10 2 -12 24 -7 17 3 32 2 36 -4 3 -7 0 -8 -9 -5 -9 3 -16 1
-16 -5 0 -6 18 -14 40 -17 22 -4 38 -10 35 -14 -8 -12 31 -19 46 -8 10 7 9 8
-6 4 -19 -6 -19 -5 -1 8 10 9 15 20 10 27 -4 7 -3 10 3 6 5 -3 10 -22 11 -42
1 -20 5 -41 8 -47 5 -7 2 -9 -7 -6 -250 103 -536 209 -562 207 -14 0 13 -11
198 -79 77 -28 154 -57 172 -65 17 -8 34 -15 37 -15 4 0 43 -16 86 -36 77 -36
80 -38 80 -71 0 -20 -4 -32 -10 -28 -5 3 -10 -3 -10 -13 0 -22 -23 -45 -34
-34 -4 4 -7 2 -6 -3 5 -23 -4 -22 -82 12 -46 19 -121 50 -168 68 -126 49 -311
124 -344 141 -34 17 -46 18 -46 4 0 -11 91 -59 171 -90 28 -11 85 -37 127 -56
43 -20 110 -49 150 -65 40 -16 106 -45 146 -64 41 -19 82 -35 91 -35 10 0 15
-6 13 -17 -2 -13 -11 -17 -33 -15 -38 5 -192 62 -320 119 -55 25 -174 70 -265
100 -186 62 -246 90 -309 141 -128 104 -137 253 -20 312 66 34 132 36 214 7
80 -28 264 -121 223 -112 -22 4 -26 2 -22 -10 7 -18 6 -18 38 -5 32 12 39 1
21 -33 -23 -45 0 -39 47 11 39 41 118 161 118 180 0 4 14 25 30 46 35 46 40
69 8 33 l-22 -24 -26 29 -27 29 -22 -50 c-21 -50 -41 -67 -41 -36 0 22 37 92
60 115 27 27 46 25 77 -6 14 -14 28 -22 32 -17 3 4 38 30 76 56 39 26 103 72
144 102 40 30 81 55 91 55 10 0 35 19 55 42 53 63 126 120 144 114 9 -3 40
-13 69 -23z m-4111 -575 c-3 -7 -5 -2 -5 12 0 14 2 19 5 13 2 -7 2 -19 0 -25z
m4658 -55 c55 -22 123 -48 150 -58 28 -9 64 -28 80 -42 l30 -24 -55 22 c-124
48 -260 98 -277 100 -27 4 -60 -10 -69 -29 -5 -9 -11 -216 -14 -459 -4 -358
-8 -445 -19 -455 -11 -11 -13 -9 -7 14 3 15 8 56 11 90 4 62 4 62 -5 14 -17
-94 -24 -103 -89 -109 -73 -8 -231 3 -231 16 0 6 -13 7 -32 2 -18 -4 -67 -11
-108 -15 -65 -6 -53 -7 85 -9 291 -5 286 -18 -7 -20 -152 0 -278 2 -280 7 -2
4 -1 196 2 427 4 379 7 424 22 448 10 14 27 31 39 37 11 6 149 33 307 59 323
54 287 56 467 -16z m-935 17 c0 -5 16 -28 35 -49 32 -36 35 -43 29 -80 -4 -23
-9 -40 -13 -39 -91 46 -121 64 -121 71 0 16 53 107 62 107 4 0 8 -4 8 -10z
m-60 -174 c0 -2 -7 -7 -16 -10 -8 -3 -12 -2 -9 4 6 10 25 14 25 6z m1030 -161
l5 -160 33 63 c18 34 36 62 41 62 12 0 41 -28 41 -39 0 -4 -13 -28 -30 -52
-16 -24 -30 -51 -30 -59 0 -8 18 -57 41 -109 22 -52 38 -100 35 -107 -12 -32
-38 -10 -76 66 -22 45 -45 78 -50 75 -6 -3 -10 -35 -10 -71 0 -62 -1 -65 -22
-62 -20 3 -24 10 -29 68 -9 87 -11 454 -3 475 4 9 15 15 28 13 20 -3 21 -9 26
-163z m-1003 109 c-3 -3 -12 -4 -19 -1 -8 3 -5 6 6 6 11 1 17 -2 13 -5z m1461
-162 c-3 -9 -10 -16 -16 -14 -7 1 -12 -2 -12 -6 0 -5 -11 -14 -25 -20 -31 -14
-46 -15 -25 -2 31 20 -14 11 -48 -10 -40 -25 -42 -25 -42 -1 0 24 21 41 84 68
55 23 90 17 84 -15z m-1865 -36 c64 -28 67 -31 69 -65 0 -20 2 -40 3 -46 2 -5
4 -14 5 -20 1 -5 2 -13 1 -17 0 -4 8 -9 18 -13 22 -7 35 -32 21 -40 -6 -4 -10
-1 -10 4 0 6 -6 11 -13 11 -9 0 -12 -18 -10 -67 4 -84 11 -116 23 -108 12 7
24 -18 39 -80 7 -27 14 -58 17 -67 11 -38 -69 -13 -114 35 -34 36 -67 136 -87
257 -9 58 -22 138 -29 178 -7 40 -10 71 -6 70 3 -2 36 -16 73 -32z m-92 -88
c4 -15 4 -29 1 -32 -9 -10 -47 -7 -59 5 -19 19 -35 -1 -31 -37 4 -36 2 -39
-22 -24 -12 8 -13 16 -2 55 7 25 19 57 28 70 15 23 16 23 47 6 17 -9 34 -29
38 -43z m-678 -5 c-7 -2 -19 -2 -25 0 -7 3 -2 5 12 5 14 0 19 -2 13 -5z m874
-170 c-3 -10 -5 -4 -5 12 0 17 2 24 5 18 2 -7 2 -21 0 -30z m-2779 -30 c3 -50
1 -55 -38 -94 -33 -34 -40 -47 -38 -75 l2 -34 61 -1 c33 -1 65 -1 70 1 7 1 7
-2 0 -9 -5 -5 -30 -11 -55 -13 l-45 -3 -3 -50 c-2 -31 -9 -55 -18 -62 -11 -8
-14 -19 -9 -35 5 -18 4 -20 -4 -8 -6 8 -11 28 -11 43 0 20 -6 30 -20 34 -14 4
-22 17 -26 42 -3 20 -6 40 -7 46 -1 5 12 13 28 16 l30 7 -32 1 -33 1 -1 60
c-1 33 -2 66 -3 73 -1 8 15 12 46 12 l47 0 -5 37 c-9 52 0 70 33 66 26 -3 28
-7 31 -55z m2309 -37 c1 -27 12 -66 31 -103 28 -57 29 -61 14 -94 -12 -26 -16
-30 -19 -16 -4 14 -13 17 -41 15 l-37 -3 3 -79 c2 -44 8 -89 14 -99 7 -14 7
-17 -1 -13 -6 4 -12 0 -12 -11 -1 -10 -5 -4 -9 12 -4 17 -5 -62 -3 -175 2
-133 0 -198 -6 -185 -9 19 -10 19 -10 1 -1 -11 -3 -17 -7 -14 -3 3 -5 150 -4
326 1 356 6 332 -70 332 -49 0 -60 15 -59 83 l2 56 51 4 c28 2 76 4 107 5 l56
2 0 -44z m-939 -28 l-3 -63 -36 3 c-36 3 -36 3 -43 -44 -3 -26 -6 -116 -6
-200 0 -85 -3 -154 -6 -154 -3 0 -24 11 -47 24 -23 14 -69 35 -101 47 l-59 22
6 126 c4 69 7 152 7 184 0 45 3 57 15 57 9 0 24 13 33 30 l17 30 113 0 113 0
-3 -62z m-3186 -38 c27 -27 29 -35 22 -63 -9 -36 -12 -173 -4 -227 l5 -34 -65
-3 c-36 -1 -75 -5 -87 -8 -23 -5 -23 -5 -21 112 0 65 -2 137 -7 160 -6 38 -4
45 20 68 41 37 97 35 137 -5z m5703 -216 c176 -19 414 -68 434 -89 15 -15 14
-15 -10 -6 -43 16 -345 71 -391 71 -48 0 -54 -17 -68 -187 -7 -87 -16 -165
-21 -173 -6 -10 -7 -2 -4 20 4 34 4 33 -6 -5 -7 -22 -13 -41 -14 -42 -3 -5
-166 17 -245 32 -298 56 -459 85 -479 85 l-24 0 5 128 c5 133 14 167 51 183
32 13 615 1 772 -17z m-3138 -115 c272 -30 513 -141 716 -330 86 -79 237 -294
237 -337 0 -13 4 -21 8 -18 12 7 45 -71 36 -85 -4 -8 -3 -9 4 -5 7 4 12 1 13
-6 1 -7 3 -29 5 -48 3 -28 -4 -19 -33 45 -50 110 -157 265 -245 354 -78 79
-189 159 -264 191 -63 27 -67 25 -14 -7 25 -14 49 -33 53 -40 5 -7 12 -11 18
-8 5 4 9 2 9 -4 0 -5 17 -27 38 -48 62 -64 137 -155 169 -208 46 -74 94 -177
89 -189 -2 -6 -9 1 -15 17 -12 32 -25 37 -15 5 l6 -21 -27 21 c-19 15 -35 20
-53 15 -22 -5 -24 -3 -18 13 4 10 4 15 0 11 -4 -4 -22 16 -41 43 -18 28 -35
50 -37 50 -1 0 16 -38 40 -84 80 -159 124 -325 124 -473 0 -52 0 -53 30 -53
17 0 30 -4 30 -9 0 -5 -13 -12 -30 -16 -16 -4 -30 -7 -30 -8 0 -34 -36 -184
-59 -245 -106 -292 -324 -499 -618 -589 -78 -23 -105 -26 -238 -27 -113 0
-166 4 -213 17 -281 77 -498 258 -636 533 -19 38 -35 66 -36 63 -1 -15 61
-154 69 -157 6 -2 7 -10 4 -19 -5 -12 -3 -14 7 -8 9 5 11 4 6 -3 -19 -30 179
-270 289 -352 90 -67 223 -128 349 -161 65 -17 129 -28 141 -25 20 5 22 3 17
-21 -5 -24 -6 -25 -12 -8 -4 11 -10 -24 -14 -80 -4 -54 -9 -101 -12 -104 -3
-4 -11 2 -18 12 -16 21 -33 22 -52 2 -9 -8 -33 -15 -55 -15 -28 0 -42 -6 -51
-20 -15 -23 -48 -27 -48 -5 0 8 -4 15 -10 15 -5 0 -10 -14 -10 -31 0 -31 -13
-51 -40 -62 -12 -4 -11 -6 3 -6 27 -1 22 -41 -5 -42 -13 0 -17 -3 -10 -6 14
-6 16 -43 2 -43 -5 0 -10 -7 -10 -15 0 -9 -12 -28 -26 -42 -16 -16 -24 -33
-21 -44 3 -11 1 -22 -4 -25 -5 -3 -9 4 -9 16 0 12 -5 18 -10 15 -6 -4 -8 -10
-5 -15 3 -4 -4 -10 -16 -13 -14 -4 -22 1 -28 16 -21 54 -39 91 -40 80 -1 -7
44 -104 99 -217 55 -112 100 -207 100 -210 0 -3 14 -36 31 -73 72 -155 166
-393 214 -538 21 -63 45 -165 59 -253 7 -42 -9 -33 -18 10 -25 128 -180 529
-328 848 -165 355 -301 607 -487 900 -170 269 -201 320 -253 423 -56 112 -99
235 -123 352 -21 103 -22 296 -1 407 74 396 352 747 715 904 102 45 248 81
364 93 132 12 138 12 244 0z m-777 -72 c0 -2 -9 -12 -20 -22 -24 -21 -27 -14
-4 9 15 15 24 20 24 13z m3019 -112 c121 -20 316 -53 431 -75 327 -61 363 -65
578 -51 103 7 230 16 282 21 184 17 397 24 404 12 4 -6 -9 -13 -31 -16 -63
-10 -384 -44 -623 -66 -124 -12 -232 -23 -242 -26 -13 -4 -17 -23 -22 -97 -3
-51 -13 -211 -21 -357 -26 -438 -34 -547 -50 -720 -9 -91 -20 -230 -26 -310
-24 -364 -51 -668 -60 -698 -6 -17 -8 -47 -5 -65 5 -24 4 -27 -3 -12 -8 16
-10 9 -11 -30 -1 -27 -3 -59 -4 -70 -2 -11 -9 -65 -16 -120 -10 -70 -16 -93
-20 -75 l-7 25 -4 -29 c-4 -25 -11 -31 -63 -47 -122 -39 -193 -101 -249 -217
-17 -37 -32 -68 -33 -69 0 -2 -18 6 -39 17 -70 36 -75 32 -75 -63 l0 -83 53
-18 c52 -18 55 -21 88 -90 44 -93 107 -160 191 -202 50 -25 68 -40 68 -54 0
-11 -1 -20 -3 -20 -2 0 -62 22 -133 49 -124 47 -209 80 -509 198 -77 30 -192
74 -255 98 -170 64 -200 76 -200 85 0 5 19 19 43 33 53 31 124 107 143 152 24
59 18 147 -17 233 -27 67 -30 85 -25 139 l5 62 -52 19 -52 20 -3 -57 -3 -57
-44 10 -45 11 0 65 0 66 -52 15 -53 16 -3 -75 c-2 -41 -1 -77 2 -79 2 -3 18
-2 35 2 29 6 31 9 33 58 l1 52 6 -55 c6 -59 1 -70 -38 -70 -13 0 -48 -13 -77
-30 -29 -16 -55 -26 -58 -21 -3 4 -4 43 -1 87 2 43 11 272 21 507 10 236 21
418 25 405 13 -49 53 -113 100 -160 120 -119 308 -143 431 -53 101 74 143 178
136 335 -5 102 -27 167 -81 238 -83 109 -260 160 -407 116 -41 -12 -67 -29
-110 -72 l-56 -57 4 70 c2 39 10 85 18 102 21 53 45 58 191 39 70 -9 140 -19
154 -22 l26 -6 7 114 c4 62 16 246 26 408 11 162 24 369 30 459 6 91 15 170
21 178 18 21 89 16 328 -22z m-4552 -298 c63 -42 65 -49 248 -912 68 -317 89
-412 215 -970 123 -543 209 -936 216 -986 6 -41 4 -48 -20 -67 -15 -11 -59
-32 -99 -45 -383 -133 -634 -217 -646 -217 -8 0 2 11 22 24 34 23 170 72 282
101 78 21 279 92 325 115 65 33 75 88 39 206 -26 83 -71 134 -118 134 -18 0
-60 -9 -94 -19 -34 -11 -116 -36 -182 -56 -182 -55 -255 -84 -257 -103 -1 -10
-4 79 -8 196 -7 236 -10 248 -81 285 -42 21 -132 17 -159 -8 -24 -21 -36 -14
-44 27 -6 30 -8 31 -20 15 -12 -15 -14 -16 -20 -2 -10 26 -36 18 -36 -12 0
-42 13 -55 43 -47 33 8 34 -4 7 -48 -15 -24 -20 -51 -20 -100 l0 -68 -45 -11
c-52 -13 -52 -30 0 -22 l34 6 -9 -33 c-5 -18 -7 -36 -4 -41 2 -4 -4 -13 -15
-18 -12 -7 -17 -18 -14 -30 4 -15 -4 -21 -46 -31 -28 -7 -54 -16 -57 -21 -3
-5 -11 -9 -17 -9 -7 0 -6 4 3 11 12 9 12 10 -3 5 -10 -3 -24 -6 -30 -6 -7 0
-6 -4 2 -9 11 -7 4 -11 -25 -17 -21 -3 -44 -11 -51 -16 -7 -5 -17 -7 -23 -3
-5 3 -20 -1 -32 -9 -12 -9 -33 -16 -45 -16 -20 0 -23 5 -23 38 0 27 -3 33 -10
22 -7 -11 -10 -5 -10 24 0 37 1 39 15 20 8 -10 15 -14 15 -7 0 6 -4 15 -10 18
-26 16 9 36 95 54 81 17 223 61 185 57 -55 -5 -259 -63 -286 -81 -20 -13 -24
-24 -24 -61 0 -52 12 -79 40 -94 16 -9 57 1 202 50 99 33 182 59 184 58 1 -2
4 -31 6 -66 l3 -64 -44 -23 c-24 -13 -51 -32 -60 -42 -22 -25 -19 -92 8 -144
21 -40 21 -43 5 -85 -9 -24 -20 -44 -24 -44 -12 0 -20 28 -20 67 0 27 -3 34
-15 29 -10 -4 -15 1 -15 14 0 13 9 22 25 26 14 3 25 10 25 15 0 5 -15 1 -34
-8 -32 -15 -37 -15 -60 0 -28 19 -47 14 -84 -20 -19 -18 -27 -20 -34 -11 -4 7
-8 9 -8 4 0 -6 -6 -2 -13 8 -23 32 -28 -5 -12 -96 21 -119 32 -144 70 -168 40
-24 58 -21 238 39 109 36 137 40 103 12 -8 -7 -79 -34 -157 -60 -79 -27 -168
-58 -197 -70 -75 -30 -108 -28 -126 7 -8 16 -20 49 -25 73 -14 56 -132 592
-221 999 -111 510 -176 804 -255 1160 -72 323 -136 622 -156 724 -19 100 31
180 131 210 91 27 114 23 146 -27 33 -54 81 -87 131 -94 25 -3 128 16 308 56
319 72 412 97 443 117 37 25 62 74 62 126 0 55 9 62 103 83 74 17 120 11 164
-18z m5590 -89 c-2 -18 -4 -6 -4 27 0 33 2 48 4 33 2 -15 2 -42 0 -60z m240
10 c-2 -13 -4 -5 -4 17 -1 22 1 32 4 23 2 -10 2 -28 0 -40z m-7427 -115 c-71
-80 -93 -190 -67 -340 9 -53 10 -84 4 -86 -7 -2 -6 -21 2 -53 7 -27 15 -62 18
-79 2 -16 11 -58 19 -92 9 -35 14 -71 12 -80 -3 -15 -37 141 -89 405 -11 53
-29 71 -29 28 0 -13 -12 -48 -27 -77 l-28 -53 -8 50 c-17 100 24 264 85 338
28 34 125 92 136 81 3 -2 -10 -21 -28 -42z m7167 -15 c-3 -7 -5 -2 -5 12 0 14
2 19 5 13 2 -7 2 -19 0 -25z m-2467 -58 c0 -5 -2 -10 -4 -10 -3 0 -8 5 -11 10
-3 6 -1 10 4 10 6 0 11 -4 11 -10z m2447 -227 c-2 -21 -4 -6 -4 32 0 39 2 55
4 38 2 -18 2 -50 0 -70z m240 -30 c-3 -10 -5 -2 -5 17 0 19 2 27 5 18 2 -10 2
-26 0 -35z m-260 -365 c-3 -8 -6 -5 -6 6 -1 11 2 17 5 13 3 -3 4 -12 1 -19z
m-1392 -48 c8 -7 12 -16 9 -21 -3 -5 5 -9 17 -9 12 0 20 -3 17 -6 -4 -3 1 -14
10 -23 60 -63 77 -101 89 -192 18 -140 -16 -242 -105 -315 -87 -72 -183 -70
-283 6 -152 114 -195 325 -96 471 27 41 93 88 138 100 46 11 186 4 204 -11z
m-5675 -260 c0 -13 -1 -13 -10 0 -5 8 -10 22 -10 30 0 13 1 13 10 0 5 -8 10
-22 10 -30z m7835 -143 c65 -33 109 -67 137 -103 l22 -29 -35 32 c-42 38 -182
113 -212 113 -17 0 -14 -5 18 -23 42 -24 54 -54 20 -50 -11 2 -44 6 -74 9 -40
5 -52 4 -47 -4 4 -7 1 -12 -6 -13 -7 0 5 -7 27 -14 l40 -14 -45 5 c-66 8 -150
26 -155 35 -7 10 62 60 104 76 53 20 146 11 206 -20z m-5333 -74 c70 -66 115
-212 106 -343 -9 -118 -62 -180 -171 -200 -79 -15 -128 0 -181 54 -108 112
-120 357 -22 464 66 73 203 86 268 25z m2354 -463 c-6 -417 -10 -519 -22 -553
-18 -49 -21 -166 -5 -196 9 -16 9 -21 -1 -21 -9 0 -579 187 -595 195 -5 2 99
205 109 211 6 4 8 3 5 -3 -7 -11 120 -61 306 -121 l87 -28 0 25 c0 24 -9 29
-117 67 -65 23 -151 51 -190 63 -81 24 -87 34 -54 87 l19 32 84 -28 c258 -87
287 -93 262 -52 -14 21 -233 93 -291 95 -24 1 -43 3 -43 5 0 6 84 157 112 201
26 42 28 43 28 18 0 -24 23 -47 35 -35 3 2 6 34 8 70 2 50 9 75 27 102 l25 36
9 -125 c8 -112 11 -125 27 -125 18 0 19 11 19 167 l0 167 40 67 c43 73 55 85
65 69 13 -20 25 -9 25 24 0 34 18 96 28 96 3 0 2 -230 -2 -510z m2812 375
c123 -60 144 -84 176 -194 21 -70 21 -170 2 -177 -8 -3 -50 6 -93 19 l-78 25
-15 -21 c-79 -112 -139 -163 -204 -174 -63 -10 -132 52 -157 141 -8 30 -8 30
8 11 l16 -20 -8 20 c-17 46 -18 172 -1 223 34 100 140 202 211 202 18 0 80
-24 143 -55z m-2978 25 c-6 -11 -13 -20 -16 -20 -2 0 0 9 6 20 6 11 13 20 16
20 2 0 0 -9 -6 -20z m-2211 -582 c27 -134 120 -781 123 -855 1 -31 6 -43 16
-43 8 0 108 36 221 80 480 185 495 190 509 173 17 -24 15 -63 -3 -63 -13 0
-14 -2 -3 -14 9 -9 17 -11 25 -4 8 6 18 -5 33 -39 73 -161 119 -282 212 -558
27 -82 55 -156 62 -163 7 -7 31 -19 52 -27 25 -9 38 -19 37 -30 -1 -13 7 -16
43 -14 66 4 63 -7 -6 -19 -73 -13 -189 -68 -273 -130 -78 -58 -175 -149 -192
-182 -27 -53 -45 -170 -45 -288 0 -117 1 -120 30 -161 17 -23 28 -46 25 -51
-3 -5 0 -7 8 -4 17 6 16 -34 -1 -45 -45 -28 280 -164 543 -227 104 -25 119
-26 280 -20 94 3 216 12 273 21 201 29 417 66 450 76 19 6 223 104 455 218
232 114 481 236 554 271 74 35 130 68 126 73 -3 6 -1 7 5 3 15 -9 60 21 64 42
2 9 -11 32 -29 51 -29 30 -35 32 -50 20 -16 -12 -17 -12 -6 2 11 14 4 19 -57
43 -38 15 -75 24 -82 20 -7 -4 -10 -4 -6 1 11 12 -65 43 -123 51 -41 5 -49 10
-44 23 4 9 9 57 12 108 10 152 -17 210 -121 266 -33 18 -63 40 -68 50 -4 9
-12 25 -16 35 -10 20 -141 71 -261 102 -59 16 -127 23 -244 27 -446 17 -523 7
-732 -98 -60 -29 -125 -71 -162 -104 l-61 -55 -73 10 c-91 11 -159 22 -159 25
0 1 9 28 21 61 11 32 26 79 34 104 33 110 162 440 225 575 42 89 53 106 68
100 39 -16 464 -169 542 -195 98 -33 261 -92 305 -110 17 -6 66 -25 110 -42
44 -16 119 -45 166 -64 48 -19 93 -34 100 -34 11 0 14 16 12 67 -2 80 5 64 9
-21 l3 -58 140 -55 c77 -29 214 -82 305 -117 249 -96 650 -251 805 -312 l90
-35 0 -59 c1 -40 -3 -60 -11 -60 -7 0 -15 6 -17 13 -4 9 -6 9 -6 -1 -1 -7 23
-24 52 -38 61 -27 147 -43 147 -26 0 6 -4 12 -9 14 -12 5 -24 108 -12 108 5 0
41 -11 79 -25 83 -30 80 -29 85 -7 3 11 4 9 2 -4 -1 -12 7 -27 17 -33 11 -7
17 -19 14 -27 -3 -8 -1 -14 3 -14 5 0 1 -21 -8 -47 -18 -52 -29 -59 -186 -127
-169 -73 -270 -119 -555 -254 -341 -162 -352 -167 -565 -261 -88 -39 -196 -89
-240 -110 -44 -22 -116 -56 -160 -77 -44 -20 -82 -39 -85 -43 -3 -3 -11 -7
-18 -9 -27 -5 -133 -60 -125 -64 4 -3 3 -3 -4 -2 -17 4 -135 -50 -127 -58 3
-4 -2 -4 -13 -2 -10 3 -27 -2 -38 -11 l-20 -15 20 6 c15 4 17 4 6 -4 -8 -6
-20 -8 -26 -6 -12 5 -55 -13 -215 -89 -47 -22 -151 -70 -231 -106 -81 -36
-146 -70 -147 -76 0 -5 -26 -22 -58 -37 -33 -16 -50 -28 -40 -28 40 0 6 -11
-75 -25 -46 -7 -144 -17 -217 -20 l-132 -7 -11 30 c-14 41 -39 56 -139 81 -46
12 -119 37 -161 57 -43 20 -82 33 -88 30 -6 -4 -11 -20 -11 -37 0 -16 -6 -29
-12 -30 -10 0 -10 -2 0 -6 26 -10 10 -21 -18 -12 -16 6 -30 15 -30 20 0 4 -7
5 -17 2 -11 -4 -14 -3 -9 5 5 8 2 10 -8 6 -9 -3 -16 -1 -16 6 0 6 -4 8 -10 5
-5 -3 -27 6 -47 20 -21 14 -44 25 -51 25 -7 0 -10 4 -7 10 4 6 -1 7 -11 3 -12
-4 -15 -3 -10 5 4 8 2 10 -8 6 -8 -3 -24 0 -37 6 -17 10 -19 14 -8 22 10 7 8
8 -7 3 -13 -3 -36 3 -58 16 -20 11 -36 22 -36 22 0 1 7 27 15 57 8 30 15 56
15 58 0 1 -9 2 -21 2 -12 0 -36 7 -54 16 -50 23 -68 16 -79 -34 -5 -23 -13
-42 -18 -42 -4 0 -52 22 -106 49 -53 27 -148 72 -211 100 -158 73 -181 89
-174 123 6 29 -11 39 -21 13 -8 -23 -27 -19 -128 29 -142 66 -229 106 -268
123 -71 32 -446 213 -490 237 -44 25 -45 26 -45 76 1 53 -16 45 -17 -9 l-1
-28 -86 37 c-47 21 -137 63 -199 94 l-112 56 6 42 c4 24 7 47 8 51 0 4 -23 16
-52 27 -28 10 -77 32 -108 49 -63 34 -70 29 -61 -39 3 -22 4 -40 2 -40 -19 0
-96 44 -109 61 -19 28 -21 43 -3 33 9 -6 9 -4 0 7 -7 7 -13 26 -13 42 0 59
102 124 286 186 49 16 120 41 158 55 37 14 70 26 73 26 3 0 3 -27 1 -59 -1
-33 0 -57 4 -55 6 4 10 -24 24 -181 9 -91 17 -111 56 -135 29 -17 46 -19 158
-15 145 6 393 25 399 31 5 5 -78 9 -134 7 -29 -2 -36 0 -25 7 8 5 29 10 45 11
30 2 30 2 -5 9 l-35 7 40 2 c23 0 46 -4 53 -11 6 -6 15 -9 18 -5 20 20 -49 34
-214 43 -97 6 -126 4 -132 -6 -13 -21 -21 101 -18 274 l3 160 215 78 c648 237
916 341 913 356 -5 24 -56 361 -93 622 -22 151 -43 287 -46 303 -4 20 -2 27 9
27 11 0 19 -17 26 -52z m-2480 -65 c42 -34 56 -178 22 -212 -11 -11 -27 -34
-36 -51 -38 -73 -134 -90 -213 -37 -48 31 -72 80 -72 144 0 65 33 113 102 147
64 32 163 37 197 9z m7516 -187 c0 -70 -3 -130 -6 -132 -4 -2 -14 5 -24 16
-15 17 -17 32 -10 121 8 112 12 132 29 126 7 -3 11 -46 11 -131z m-7894 22
c-21 -42 -26 -68 -26 -125 0 -64 3 -76 33 -120 l33 -48 -40 43 c-64 70 -66
171 -5 265 34 52 36 46 5 -15z m5965 -28 c0 -21 -3 -37 -8 -34 -4 3 -8 24 -8
46 0 23 3 38 8 34 4 -4 7 -25 8 -46z m-4456 36 c0 -3 -4 -8 -10 -11 -5 -3 -10
-1 -10 4 0 6 5 11 10 11 6 0 10 -2 10 -4z m2199 -33 c0 -25 -1 -26 -9 -8 -12
27 -12 35 0 35 6 0 10 -12 9 -27z m-159 -19 l20 -30 -29 2 c-33 2 -93 42 -85
56 3 5 21 8 40 6 26 -2 40 -11 54 -34z m-2030 22 c0 -3 -4 -8 -10 -11 -5 -3
-10 -1 -10 4 0 6 5 11 10 11 6 0 10 -2 10 -4z m1937 -32 c20 -16 39 -39 44
-50 6 -18 4 -20 -19 -17 -23 3 -24 2 -7 -5 19 -9 19 -9 -3 -21 -14 -7 -22 -21
-22 -36 0 -16 -6 -25 -16 -25 -8 0 -13 -4 -10 -9 4 -5 0 -11 -6 -14 -7 -2 -10
-7 -6 -11 3 -4 19 1 34 11 16 10 25 13 21 6 -9 -14 -103 -63 -120 -63 -7 0 -6
5 3 10 11 8 8 9 -12 4 -65 -15 -148 47 -148 109 0 45 41 100 92 126 59 30 126
24 175 -15z m2046 12 c18 -7 42 -24 55 -38 l22 -24 -30 -55 c-16 -30 -30 -65
-30 -78 0 -13 -9 -39 -21 -57 -20 -33 -22 -34 -88 -34 -60 0 -73 4 -109 30
-63 45 -76 71 -62 117 37 114 164 181 263 139z m363 -31 c36 -15 102 -63 72
-52 -15 5 -15 3 -1 -31 13 -31 13 -34 0 -24 -12 10 -16 9 -21 -3 -3 -9 -10
-13 -16 -10 -5 3 -10 0 -10 -7 0 -9 -3 -9 -10 2 -10 16 -14 8 -11 -22 1 -10
-2 -18 -8 -18 -5 0 -13 -10 -16 -22 -9 -30 -53 -97 -83 -125 -25 -25 -70 -30
-104 -12 -28 15 -96 87 -103 110 -8 25 11 89 38 130 24 36 89 85 122 92 46 10
118 6 151 -8z m1790 -8 c74 -16 148 -62 209 -129 41 -46 61 -89 33 -72 -7 4
-8 3 -4 -5 4 -6 -4 -25 -18 -42 -14 -17 -26 -37 -26 -44 0 -22 -59 -141 -80
-161 -10 -11 -39 -39 -65 -63 -25 -24 -49 -49 -53 -56 -4 -6 -27 -25 -52 -43
-25 -17 -60 -47 -79 -66 -44 -47 -77 -47 -169 -1 -79 40 -143 103 -181 179
-20 41 -23 58 -19 120 8 104 39 175 110 252 70 74 153 120 243 133 84 12 83
12 151 -2z m-5895 -8 c11 -5 17 -14 14 -19 -3 -5 -1 -11 5 -15 5 -3 10 -35 10
-71 0 -55 -2 -64 -18 -64 -10 0 -27 -10 -38 -22 -55 -64 -67 -101 -41 -126 6
-7 12 -18 12 -24 0 -6 9 -12 19 -14 20 -3 38 -23 30 -35 -2 -4 4 -6 14 -5 14
1 18 -9 20 -51 2 -33 -1 -53 -8 -53 -6 0 -8 -11 -6 -25 3 -14 1 -25 -4 -25 -9
0 -53 35 -105 82 -16 16 -32 28 -35 28 -14 -1 -60 -82 -60 -106 0 -15 -3 -24
-7 -21 -3 4 -9 80 -14 169 -7 159 -6 164 18 218 13 30 38 70 55 87 28 29 30
35 20 58 -7 14 -12 28 -12 30 0 15 105 18 131 4z m-161 -24 c-7 -9 -15 -13
-17 -11 -7 7 7 26 19 26 6 0 6 -6 -2 -15z m5555 -146 c3 -4 -5 -40 -19 -80
-21 -62 -67 -287 -78 -379 -5 -42 -55 -51 -135 -24 -57 20 -105 53 -155 108
-34 37 -38 39 -38 19 0 -13 5 -23 10 -23 6 0 10 -4 10 -10 0 -5 -4 -10 -10
-10 -31 0 -27 157 6 221 38 75 126 149 207 175 41 13 189 15 202 3z m-6906
-251 c12 -79 25 -158 28 -175 4 -28 2 -33 -14 -33 -10 0 -24 -5 -31 -12 -9 -9
-13 -8 -16 3 -9 26 -56 303 -56 331 0 25 3 28 34 28 l33 0 22 -142z m2059 -18
c3 -20 2 -22 -11 -12 -11 10 -17 9 -26 -1 -13 -17 -5 -27 23 -28 12 0 15 -3 9
-6 -20 -7 -15 -20 10 -27 18 -5 20 -8 7 -16 -25 -16 -48 -11 -69 16 -29 36
-28 82 2 94 34 14 52 7 55 -20z m-80 -60 c17 -33 26 -60 21 -60 -23 0 -46 21
-59 54 -7 20 -20 36 -27 36 -21 0 -15 -25 12 -50 19 -18 22 -26 14 -37 -25
-29 -43 -11 -64 63 -7 27 18 54 49 54 18 0 30 -13 54 -60z m-128 16 c0 -7 7
-27 15 -42 20 -40 19 -49 -10 -62 -28 -13 -27 -15 -45 56 -6 23 -8 47 -5 52 9
15 45 12 45 -4z m-69 -38 c21 -26 25 -71 6 -86 -6 -6 -24 -13 -39 -17 -29 -7
-32 -2 -41 72 -2 24 1 34 17 42 31 14 36 13 57 -11z m-511 -23 c0 -15 -6 -25
-14 -25 -7 0 -18 -6 -24 -13 -9 -10 2 -18 48 -36 51 -20 71 -23 137 -18 103 7
175 31 196 65 l17 27 -2 -32 c-2 -27 -9 -35 -41 -49 -22 -10 -46 -28 -54 -41
-8 -13 -20 -20 -26 -16 -6 4 -8 0 -4 -10 5 -13 1 -17 -18 -17 -14 0 -25 -4
-25 -9 0 -16 -86 -24 -147 -15 -56 9 -59 10 -85 59 -36 65 -36 107 -2 134 35
27 44 26 44 -4z m-1220 -135 c0 -5 6 -7 13 -4 8 3 20 -3 28 -13 12 -16 12 -17
-2 -6 -16 13 -29 8 -29 -9 0 -5 6 -6 13 -3 6 4 4 0 -5 -8 -17 -13 -17 -15 2
-37 23 -27 25 -41 8 -58 -10 -10 -10 -14 -1 -20 17 -10 -11 -52 -34 -52 -13 0
-15 -9 -9 -60 l7 -60 -45 0 c-54 0 -89 29 -107 90 -25 84 27 202 106 236 36
16 55 17 55 4z m1398 -210 c15 0 24 -92 31 -317 l6 -202 -27 -15 c-16 -10 -29
-12 -33 -7 -7 12 -45 434 -45 504 0 59 17 83 41 56 9 -11 21 -19 27 -19z
m3632 -15 c25 -8 34 -13 20 -10 -39 7 -107 13 -86 8 10 -3 28 -13 38 -23 22
-20 108 -51 151 -55 60 -4 67 -5 67 -14 0 -5 -17 -12 -37 -16 -60 -10 -193
-80 -250 -129 -32 -29 -86 -100 -148 -195 l-96 -148 -82 -35 c-45 -20 -92 -39
-105 -43 -12 -3 -20 -10 -17 -15 3 -5 -14 -15 -37 -21 -24 -7 -47 -16 -52 -21
-6 -4 -18 -8 -29 -8 -11 0 -15 -4 -11 -12 5 -8 2 -9 -9 -5 -9 3 -16 2 -14 -4
2 -9 -65 -39 -82 -37 -3 0 -15 0 -26 -1 -15 -1 -17 -3 -7 -10 11 -7 11 -9 -2
-14 -9 -4 -16 -2 -16 4 0 6 -5 7 -11 3 -20 -12 18 -26 40 -14 29 15 39 12 16
-7 -19 -15 -19 -15 10 -9 17 4 55 22 85 40 92 56 157 86 276 127 129 44 125
43 118 26 -3 -8 -79 -49 -169 -92 -90 -43 -162 -82 -159 -86 6 -10 -33 -22
-46 -14 -5 3 -7 0 -4 -8 7 -20 1 -23 -112 -51 -161 -40 -191 -41 -265 -12 -75
29 -349 109 -355 103 -3 -2 31 -14 73 -27 291 -84 321 -97 363 -155 17 -23 30
-32 40 -28 8 3 47 10 85 14 117 13 177 39 188 78 5 22 -7 29 -18 11 -3 -5 -16
-10 -28 -10 -16 0 -18 -3 -8 -9 9 -6 5 -10 -15 -14 -16 -3 -66 -14 -112 -23
-77 -17 -83 -17 -99 -1 -16 16 -16 17 7 17 36 0 167 28 221 47 76 26 97 2 46
-54 -27 -30 -83 -49 -197 -68 -86 -15 -99 -20 -133 -53 -39 -38 -121 -151
-114 -158 2 -3 10 2 17 11 17 21 35 19 86 -11 35 -20 64 -28 137 -34 l92 -7
-98 -2 c-56 0 -107 4 -119 10 -12 6 -39 11 -62 11 -22 -1 -46 4 -53 10 -7 6
-29 8 -48 5 -20 -3 -33 -2 -30 2 5 10 -70 31 -109 31 -14 0 -26 4 -26 9 0 5
-33 22 -72 36 -40 15 -93 37 -118 48 -25 11 -55 20 -67 19 -24 -2 -43 23 -43
57 0 27 14 27 40 -1 28 -30 25 -12 -10 77 -18 44 -30 94 -30 120 0 47 15 60
29 23 7 -19 8 -20 15 -3 4 11 0 25 -9 36 -10 10 -15 30 -13 51 l3 33 24 -45
c13 -25 25 -46 26 -48 5 -5 35 11 35 19 0 4 -6 6 -14 3 -14 -5 -33 30 -28 50
2 5 -5 17 -15 28 -18 20 -16 22 51 85 85 79 226 174 298 201 82 31 141 37 158
17 15 -19 17 -16 -76 -87 -87 -65 -175 -146 -204 -190 -13 -18 6 -3 41 33 69
71 133 125 216 181 l52 34 77 -37 c100 -49 274 -96 401 -109 163 -16 197 -4
250 84 82 137 147 228 194 270 l50 45 -28 7 c-15 4 -86 21 -158 39 -167 43
-235 51 -266 34 -13 -7 -27 -13 -31 -14 -3 0 -10 -3 -14 -7 -6 -7 0 -6 56 7
19 5 17 2 -10 -13 -25 -15 -40 -17 -53 -10 -20 10 -57 2 -57 -13 0 -5 8 -9 18
-9 9 -1 31 -7 47 -16 29 -14 29 -14 4 -9 -21 4 -28 0 -32 -16 -3 -12 -2 -29 3
-38 12 -22 50 -142 50 -158 0 -7 -8 -13 -17 -13 -16 0 -16 -2 -3 -11 12 -8 9
-9 -13 -5 -18 4 -26 3 -25 -5 4 -16 -37 -37 -85 -44 -21 -3 -35 -10 -32 -15 9
-14 -64 1 -155 33 -155 54 -154 35 -5 184 100 99 146 137 200 165 84 44 204
85 300 104 88 17 301 11 365 -11z m-5017 -9 c-10 -13 -20 -19 -22 -13 -2 5 4
16 15 24 26 19 27 16 7 -11z m5262 9 c76 -16 194 -61 130 -50 -16 3 -79 18
-140 35 -118 31 -112 40 10 15z m-110 -25 c14 -7 8 -8 -20 -3 -22 3 -42 7 -44
9 -9 8 45 2 64 -6z m2315 -57 c-5 -16 -14 -101 -21 -191 -6 -89 -15 -165 -19
-167 -4 -3 -13 2 -19 9 -9 11 -8 54 6 185 18 173 19 176 60 190 1 1 -2 -11 -7
-26z m-449 1 c12 -14 11 -16 -5 -13 -11 2 -21 10 -24 17 -5 17 13 15 29 -4z
m-1770 -12 c-7 -2 -18 1 -23 6 -8 8 -4 9 13 5 13 -4 18 -8 10 -11z m240 -36
c54 -17 105 -41 114 -56 3 -5 -10 0 -30 11 -20 12 -48 23 -63 24 -30 3 -82 22
-82 30 0 8 11 6 61 -9z m169 -86 c0 -5 -5 -10 -11 -10 -5 0 -7 5 -4 10 3 6 8
10 11 10 2 0 4 -4 4 -10z m54 -36 c9 -24 2 -26 -12 -4 -7 11 -8 20 -3 20 5 0
12 -7 15 -16z m-1650 -12 c5 -9 -20 -34 -53 -52 -12 -6 -21 -17 -21 -25 0 -8
-5 -15 -11 -15 -14 0 -4 46 17 78 14 22 57 31 68 14z m1631 -2 c3 -5 1 -10 -4
-10 -6 0 -11 5 -11 10 0 6 2 10 4 10 3 0 8 -4 11 -10z m-215 -10 c0 -5 -13
-16 -29 -25 -16 -8 -35 -20 -43 -27 -12 -12 -52 -39 -123 -84 -16 -10 -34 -17
-39 -16 -10 3 -88 -28 -96 -39 -3 -3 -12 -6 -20 -6 -8 0 -23 -4 -34 -8 -14 -6
-17 -4 -14 6 2 7 33 25 69 39 78 31 224 106 309 159 20 13 20 13 20 1z m1397
-97 c-2 -21 -4 -6 -4 32 0 39 2 55 4 38 2 -18 2 -50 0 -70z m-1337 46 c0 -5
-6 -9 -14 -9 -7 0 -19 -7 -26 -15 -14 -16 -40 -20 -40 -6 0 5 14 18 32 29 31
20 48 20 48 1z m-5223 -101 c-2 -13 -4 -3 -4 22 0 25 2 35 4 23 2 -13 2 -33 0
-45z m4647 -38 c38 -8 89 -45 56 -39 -8 1 -31 0 -50 -4 -87 -15 -130 -15 -130
1 0 25 31 52 59 52 14 0 44 -5 65 -10z m106 -17 c0 -5 -5 -15 -10 -23 -8 -12
-10 -11 -10 8 0 12 5 22 10 22 6 0 10 -3 10 -7z m-4716 -19 c3 -8 2 -12 -4 -9
-6 3 -10 10 -10 16 0 14 7 11 14 -7z m4836 -29 c-25 -27 -50 -33 -50 -12 0 13
61 49 69 41 3 -2 -6 -15 -19 -29z m443 -67 c-3 -29 -10 -57 -14 -63 -8 -8 -3
71 7 103 9 29 13 8 7 -40z m-4965 -208 c180 -89 460 -227 622 -305 162 -79
441 -216 620 -305 179 -89 372 -185 430 -212 58 -28 327 -161 599 -295 272
-135 523 -256 558 -269 193 -73 516 -81 764 -20 52 13 95 23 97 21 9 -8 -196
-65 -267 -74 -177 -23 -417 -9 -556 34 -27 8 -52 15 -55 15 -3 0 -3 -76 -2
-169 l4 -170 -39 11 c-21 6 -81 30 -133 53 -110 50 -2877 1432 -2894 1446 -6
5 -26 20 -44 35 -18 14 -44 46 -59 71 -24 42 -27 58 -33 197 -4 83 -11 160
-15 170 -5 11 11 -1 34 -27 36 -39 88 -68 369 -207z m52 184 l25 -15 -25 7
c-14 3 -29 10 -34 15 -16 14 6 10 34 -7z m1117 10 c-3 -3 -12 -4 -19 -1 -8 3
-5 6 6 6 11 1 17 -2 13 -5z m-1062 -34 c3 -6 -1 -7 -9 -4 -18 7 -21 14 -7 14
6 0 13 -4 16 -10z m4900 0 c3 -6 -1 -7 -9 -4 -18 7 -21 14 -7 14 6 0 13 -4 16
-10z m-110 -40 c3 -5 1 -10 -4 -10 -6 0 -11 5 -11 10 0 6 2 10 4 10 3 0 8 -4
11 -10z m105 -20 c0 -5 -2 -10 -4 -10 -3 0 -8 5 -11 10 -3 6 -1 10 4 10 6 0
11 -4 11 -10z m-4886 -29 c4 -5 -3 -7 -14 -4 -23 6 -26 13 -6 13 8 0 17 -4 20
-9z m190 -6 c11 -8 16 -15 10 -15 -5 0 -18 7 -28 15 -11 8 -16 15 -10 15 5 0
18 -7 28 -15z m4596 0 c-7 -9 -15 -13 -17 -11 -7 7 7 26 19 26 6 0 6 -6 -2
-15z m-4730 -20 c17 -9 30 -18 30 -21 0 -4 -59 23 -69 32 -10 9 13 3 39 -11z
m4760 -5 c0 -5 -5 -10 -11 -10 -5 0 -7 5 -4 10 3 6 8 10 11 10 2 0 4 -4 4 -10z
m-4580 -24 c0 -2 -7 -7 -16 -10 -8 -3 -12 -2 -9 4 6 10 25 14 25 6z m-50 -36
c19 -11 31 -19 25 -19 -5 0 -26 8 -45 19 -19 11 -30 19 -25 19 6 0 26 -8 45
-19z m165 2 c-3 -3 -11 0 -18 7 -9 10 -8 11 6 5 10 -3 15 -9 12 -12z m212
-100 c43 -21 93 -45 111 -52 18 -7 31 -15 28 -17 -4 -5 -141 54 -171 74 -23
15 -39 17 -30 3 10 -17 0 -11 -18 10 -24 29 -9 25 80 -18z m3300 -84 c-3 -7
-5 -2 -5 12 0 14 2 19 5 13 2 -7 2 -19 0 -25z m-60 -10 c-3 -8 -6 -5 -6 6 -1
11 2 17 5 13 3 -3 4 -12 1 -19z m-3012 -20 c5 -5 -5 -3 -23 3 -18 6 -35 15
-38 20 -6 10 45 -10 61 -23z m2700 -4 c9 3 13 2 10 -4 -3 -6 -15 -10 -26 -10
-10 0 -19 -4 -19 -9 0 -14 -100 -61 -129 -61 -15 0 -32 4 -40 9 -17 11 -6 31
19 31 10 0 20 6 23 14 3 8 25 17 49 21 24 4 50 11 58 15 8 5 20 4 27 -2 7 -6
20 -8 28 -4z m375 -19 c-7 -9 -15 -13 -18 -10 -3 2 1 11 8 20 7 9 15 13 18 10
3 -2 -1 -11 -8 -20z m-3020 0 c14 -8 21 -14 15 -14 -5 0 -21 6 -35 14 -14 8
-20 14 -15 14 6 0 21 -6 35 -14z m2971 -2 c13 -15 12 -15 -8 -4 -24 12 -29 21
-14 21 5 0 15 -7 22 -17z m-3115 -19 c18 -14 18 -14 -6 -3 -31 14 -36 19 -24
19 6 0 19 -7 30 -16z m3077 -29 c-8 -22 -22 -18 -16 5 3 11 9 17 14 15 4 -3 6
-12 2 -20z m-513 -1 c0 -8 -19 -13 -24 -6 -3 5 1 9 9 9 8 0 15 -2 15 -3z m646
-19 c-11 -8 -23 -15 -28 -15 -4 0 -5 -8 -2 -17 5 -15 4 -16 -5 -3 -8 12 -5 19
12 32 12 10 27 18 32 17 6 0 1 -6 -9 -14z m21 -37 c-3 -8 -6 -5 -6 6 -1 11 2
17 5 13 3 -3 4 -12 1 -19z m-112 2 c-3 -5 -11 -10 -16 -10 -6 0 -7 5 -4 10 3
6 11 10 16 10 6 0 7 -4 4 -10z m-60 -10 c3 -5 1 -10 -4 -10 -6 0 -11 5 -11 10
0 6 2 10 4 10 3 0 8 -4 11 -10z m-1050 -30 c3 -6 -1 -7 -9 -4 -18 7 -21 14 -7
14 6 0 13 -4 16 -10z m1145 -21 c0 -11 -4 -18 -10 -14 -5 3 -7 12 -3 20 7 21
13 19 13 -6z m-1180 -5 c0 -2 -7 -4 -15 -4 -8 0 -15 4 -15 10 0 5 7 7 15 4 8
-4 15 -8 15 -10z m85 -2 c-3 -3 -11 0 -18 7 -9 10 -8 11 6 5 10 -3 15 -9 12
-12z m259 -1 c4 -5 -3 -7 -14 -4 -23 6 -26 13 -6 13 8 0 17 -4 20 -9z m820
-27 c3 -8 2 -12 -4 -9 -6 3 -10 10 -10 16 0 14 7 11 14 -7z m-2313 -142 c-6
-2 -21 7 -33 19 l-23 22 33 -19 c18 -10 28 -20 23 -22z m2704 -172 c-3 -5 -12
-10 -18 -10 -7 0 -6 4 3 10 19 12 23 12 15 0z"/>
<path d="M5918 7523 c12 -2 32 -2 45 0 12 2 2 4 -23 4 -25 0 -35 -2 -22 -4z"/>
<path d="M3593 8273 c9 -2 23 -2 30 0 6 3 -1 5 -18 5 -16 0 -22 -2 -12 -5z"/>
<path d="M3689 7978 c0 -128 -2 -248 -3 -265 -3 -27 0 -33 15 -33 18 0 19 12
19 265 0 229 -2 265 -15 265 -13 0 -15 -33 -16 -232z"/>
<path d="M3580 7941 c0 -225 2 -261 15 -261 13 0 15 27 17 175 5 344 5 339
-14 343 -17 3 -18 -14 -18 -257z"/>
<path d="M3480 7930 c0 -216 2 -250 15 -250 13 0 15 26 15 173 0 96 3 208 6
250 7 74 6 77 -15 77 -21 0 -21 -1 -21 -250z"/>
<path d="M3347 7478 c-4 -29 -7 -90 -7 -136 0 -74 2 -83 18 -80 15 3 17 17 17
132 0 86 -4 131 -11 133 -7 2 -14 -17 -17 -49z"/>
<path d="M3557 7493 c-4 -3 -7 -98 -7 -210 0 -174 2 -203 15 -203 13 0 15 30
15 210 0 192 -4 223 -23 203z"/>
<path d="M3744 7468 c2 -18 4 -176 5 -350 l1 -318 22 0 21 0 -6 242 c-4 133
-7 290 -7 350 0 100 -1 108 -19 108 -16 0 -19 -6 -17 -32z"/>
<path d="M3160 7239 c0 -14 7 -19 25 -19 29 0 25 25 -6 33 -14 4 -19 0 -19
-14z"/>
<path d="M3040 7241 c0 -13 37 -24 50 -16 6 4 8 11 5 16 -8 12 -55 12 -55 0z"/>
<path d="M2936 7094 c-10 -72 -7 -101 9 -107 20 -8 21 -3 29 81 7 67 6 72 -12
72 -15 0 -21 -9 -26 -46z"/>
<path d="M3036 7114 c-3 -9 -6 -45 -6 -80 0 -57 2 -64 20 -64 13 0 20 7 20 19
0 10 3 46 6 80 6 57 5 61 -14 61 -11 0 -23 -7 -26 -16z"/>
<path d="M3140 7086 c0 -18 -3 -54 -6 -80 -6 -42 -5 -46 14 -46 21 0 25 13 35
123 3 33 0 37 -20 37 -19 0 -23 -5 -23 -34z"/>
<path d="M3240 7082 c0 -22 -3 -60 -6 -86 -6 -42 -5 -46 14 -46 18 0 21 8 27
64 9 78 5 100 -18 104 -14 3 -17 -4 -17 -36z"/>
<path d="M3116 6828 c-3 -18 -8 -68 -11 -110 -5 -73 -5 -78 14 -78 21 0 23 9
36 153 6 63 5 67 -14 67 -15 0 -21 -8 -25 -32z"/>
<path d="M3216 6758 c-3 -50 -6 -129 -6 -175 0 -76 2 -83 20 -83 17 0 20 7 20
48 0 26 3 104 7 175 6 123 5 127 -14 127 -18 0 -21 -9 -27 -92z"/>
<path d="M7612 8704 c-7 -8 -10 -20 -6 -27 4 -6 3 -9 -1 -4 -9 7 -45 -20 -45
-35 0 -4 9 -8 21 -8 11 0 17 5 14 10 -3 6 1 10 9 10 9 0 16 9 16 21 0 11 4 18
9 15 5 -3 11 3 14 14 6 23 -12 26 -31 4z"/>
<path d="M6772 8449 c2 -7 10 -15 17 -17 8 -3 12 1 9 9 -2 7 -10 15 -17 17 -8
3 -12 -1 -9 -9z"/>
<path d="M6820 8451 c0 -19 47 -50 68 -44 33 8 27 17 -23 35 -25 10 -45 14
-45 9z"/>
<path d="M6668 8409 c-21 -11 -38 -22 -38 -25 0 -2 9 0 19 6 27 14 31 13 24
-7 -6 -14 -3 -14 20 3 56 41 39 57 -25 23z"/>
<path d="M6920 8400 c0 -11 4 -20 9 -20 11 0 22 26 14 34 -12 12 -23 5 -23
-14z"/>
<path d="M6960 8379 c0 -18 2 -19 15 -9 15 12 12 30 -6 30 -5 0 -9 -10 -9 -21z"/>
<path d="M6735 8221 c-8 -15 3 -31 21 -31 9 0 14 7 12 17 -4 20 -24 28 -33 14z"/>
<path d="M8163 7750 c0 -25 2 -35 4 -22 2 12 2 32 0 45 -2 12 -4 2 -4 -23z"/>
<path d="M8140 7656 c-15 -39 -12 -46 6 -13 9 16 13 31 10 34 -3 3 -10 -6 -16
-21z"/>
<path d="M7650 7582 c24 -50 46 -55 207 -42 150 12 218 23 228 39 3 5 -14 3
-38 -4 -44 -13 -278 -32 -332 -27 -18 2 -39 14 -53 30 -19 22 -21 23 -12 4z"/>
<path d="M7610 7456 c0 -2 7 -7 16 -10 8 -3 12 -2 9 4 -6 10 -25 14 -25 6z"/>
<path d="M7518 7183 c12 -2 32 -2 45 0 12 2 2 4 -23 4 -25 0 -35 -2 -22 -4z"/>
<path d="M7613 7173 c15 -2 37 -2 50 0 12 2 0 4 -28 4 -27 0 -38 -2 -22 -4z"/>
<path d="M7740 7160 c30 -5 71 -8 90 -8 28 1 25 2 -15 8 -27 5 -68 8 -90 8
-35 -1 -33 -2 15 -8z"/>
<path d="M7543 7148 c-6 -7 -13 -23 -16 -36 -6 -24 16 -42 52 -42 17 0 21 6
21 33 0 48 -34 75 -57 45z"/>
<path d="M7662 7115 c-17 -37 -15 -53 8 -59 11 -3 29 -9 41 -12 19 -5 20 -2
17 43 -3 43 -6 48 -29 51 -19 2 -28 -3 -37 -23z"/>
<path d="M7978 7133 c12 -2 30 -2 40 0 9 3 -1 5 -23 4 -22 0 -30 -2 -17 -4z"/>
<path d="M7802 7095 c-18 -39 -15 -45 24 -61 44 -18 54 -10 54 49 0 35 -1 37
-33 37 -26 0 -36 -6 -45 -25z"/>
<path d="M7952 7088 c-7 -7 -12 -24 -12 -40 0 -23 5 -28 36 -34 42 -8 54 4 54
54 0 30 -2 32 -33 32 -18 0 -38 -5 -45 -12z"/>
<path d="M5510 6576 c0 -2 8 -10 18 -17 15 -13 16 -12 3 4 -13 16 -21 21 -21
13z"/>
<path d="M5550 6534 c0 -6 8 -22 19 -35 35 -45 54 -90 42 -102 -6 -6 -11 -18
-10 -26 0 -9 4 -6 10 8 5 13 12 21 15 18 3 -3 0 -15 -6 -27 -6 -12 -9 -28 -6
-36 5 -12 1 -12 -24 1 -19 10 -30 24 -31 38 l0 22 -9 -22 c-10 -23 -30 -32
-30 -12 0 5 -4 8 -9 5 -5 -4 -11 -3 -14 1 -5 10 -2 -1 30 -97 22 -68 24 -87
20 -200 -3 -99 -9 -137 -27 -185 -65 -170 -203 -301 -369 -349 -85 -25 -233
-21 -325 8 -53 16 -73 20 -69 10 2 -7 17 -15 31 -17 l27 -4 -27 -2 c-19 0 -28
-7 -28 -17 0 -13 -7 -15 -31 -10 -24 5 -30 3 -26 -8 10 -26 -52 -36 -72 -13
-15 19 -2 29 16 12 16 -17 48 -21 38 -5 -3 6 -13 10 -21 10 -8 0 -14 4 -14 9
0 11 -55 9 -67 -2 -4 -5 1 -5 10 -1 12 4 17 2 15 -7 -5 -20 120 -87 207 -110
59 -15 110 -20 195 -20 136 0 201 15 320 73 165 80 302 254 350 442 42 166 35
314 -25 471 -23 63 -104 201 -105 179z"/>
<path d="M6090 6480 c0 -5 5 -10 11 -10 5 0 7 5 4 10 -3 6 -8 10 -11 10 -2 0
-4 -4 -4 -10z"/>
<path d="M5470 6412 c6 -13 14 -21 18 -18 3 4 -2 14 -12 24 -18 16 -18 16 -6
-6z"/>
<path d="M4111 5764 c0 -11 3 -14 6 -6 3 7 2 16 -1 19 -3 4 -6 -2 -5 -13z"/>
<path d="M4435 4709 c-4 -6 -5 -12 -2 -15 2 -3 7 2 10 11 7 17 1 20 -8 4z"/>
<path d="M7110 6841 c0 -69 1 -71 25 -71 23 0 25 3 25 50 0 28 5 50 10 50 6 0
10 -25 10 -55 0 -30 5 -55 10 -55 6 0 10 25 10 56 0 34 4 53 10 49 6 -3 10
-31 10 -61 0 -77 16 -59 19 20 2 72 5 69 -81 82 l-48 6 0 -71z"/>
<path d="M7352 6802 c3 -76 3 -77 31 -80 27 -3 27 -3 27 59 0 34 3 59 7 55 7
-6 9 -23 12 -93 0 -18 6 -33 12 -33 7 0 9 19 6 53 -2 28 -2 39 1 22 6 -30 6
-30 13 10 6 32 7 28 4 -22 -2 -49 0 -63 11 -63 11 0 14 16 14 65 0 36 0 68 1
73 0 4 -19 10 -43 14 -23 4 -56 10 -71 12 l-28 6 3 -78z"/>
<path d="M7608 6758 c-2 -40 -3 -73 -3 -74 0 -1 15 -4 33 -7 l32 -6 0 65 c0
48 3 65 13 61 7 -2 12 -24 13 -58 0 -73 2 -79 19 -79 10 0 16 17 21 60 8 72
17 69 25 -8 l6 -57 2 76 1 76 -69 12 c-39 6 -74 11 -80 11 -5 0 -11 -33 -13
-72z"/>
<path d="M7890 6704 c0 -76 0 -76 25 -72 14 3 25 1 25 -3 0 -5 5 -9 10 -9 6 0
10 13 10 29 0 43 11 91 21 91 5 0 9 -29 9 -65 0 -48 3 -65 14 -65 15 0 26 42
26 105 l0 42 -51 11 c-91 21 -89 22 -89 -64z"/>
<path d="M7100 6581 c0 -90 0 -91 25 -91 24 0 25 2 25 65 0 81 20 87 21 8 1
-32 1 -63 0 -69 -1 -7 5 -14 14 -18 12 -4 15 6 15 59 0 73 17 97 23 33 3 -35
4 -32 5 18 l2 61 -32 6 c-18 3 -48 9 -65 13 l-33 7 0 -92z"/>
<path d="M7328 6541 c-2 -47 -4 -87 -3 -88 1 -2 16 -6 33 -9 l32 -6 0 71 c0
56 3 71 15 71 12 0 15 -16 15 -81 0 -57 3 -80 12 -77 7 3 11 27 9 70 -1 39 2
69 8 73 10 6 16 -61 11 -122 -1 -13 3 -23 8 -23 5 0 10 30 11 68 1 37 3 76 4
86 2 21 -21 31 -105 45 l-46 8 -4 -86z"/>
<path d="M7602 6481 c2 -52 7 -91 13 -91 6 0 20 -3 33 -6 21 -6 22 -4 22 70 0
49 4 75 10 71 6 -3 10 -40 10 -81 0 -67 2 -74 20 -74 18 0 20 7 21 73 1 88 17
64 18 -27 1 -87 9 -64 12 33 l2 85 -36 12 c-20 7 -57 16 -82 19 l-45 7 2 -91z"/>
<path d="M7880 6425 c0 -69 3 -95 13 -95 6 0 22 -3 35 -6 21 -6 22 -4 22 75 0
60 3 81 13 81 10 0 12 -19 9 -84 -4 -77 -3 -83 16 -88 19 -5 21 0 27 71 3 42
7 85 8 95 2 17 -8 22 -58 33 -33 6 -66 12 -72 13 -10 0 -13 -25 -13 -95z"/>
<path d="M7088 6283 c-4 -87 4 -113 32 -113 18 0 20 6 20 70 0 40 4 70 10 70
6 0 10 -31 10 -74 0 -59 3 -75 16 -80 9 -4 19 -5 21 -3 2 3 6 43 10 89 l6 85
-61 15 -61 15 -3 -74z"/>
<path d="M7320 6276 c0 -18 -3 -60 -6 -93 -6 -53 -4 -61 12 -65 11 -3 27 -9
37 -13 15 -6 17 1 17 74 0 67 3 81 16 81 13 0 15 -13 12 -82 -2 -71 0 -83 14
-86 15 -3 18 8 20 75 2 56 7 77 16 76 6 -2 12 4 12 12 0 18 -4 20 -87 39 l-63
14 0 -32z"/>
<path d="M7590 6208 c0 -24 -3 -66 -6 -94 -6 -51 -6 -51 26 -63 18 -6 37 -11
41 -11 5 0 9 36 9 80 0 47 4 80 10 80 12 0 13 -13 10 -99 -2 -60 6 -80 33 -81
4 0 7 39 8 88 1 78 2 83 11 47 5 -22 7 -52 4 -67 -3 -16 -1 -28 4 -28 6 0 11
29 12 65 0 36 1 70 2 77 1 9 -123 47 -156 48 -5 0 -8 -19 -8 -42z"/>
<path d="M7870 6187 c-1 -1 -3 -45 -6 -98 l-6 -96 33 -12 c17 -6 33 -11 35
-11 2 0 5 39 6 87 2 52 7 88 14 90 15 5 24 -72 15 -125 -7 -33 -5 -47 6 -58
26 -26 33 -15 33 54 0 37 3 83 6 103 l6 36 -53 12 c-74 16 -89 19 -89 18z"/>
<path d="M7080 5950 c0 -71 3 -89 16 -94 39 -15 44 -8 44 64 0 40 4 70 10 70
6 0 10 -33 10 -80 0 -73 2 -80 20 -80 18 0 20 7 20 80 0 44 0 83 1 88 0 4 -27
15 -60 24 l-61 16 0 -88z"/>
<path d="M7305 5883 l0 -87 31 -12 32 -13 7 74 c9 101 27 98 23 -4 -3 -76 -2
-80 20 -84 19 -4 22 0 22 28 0 18 3 59 6 92 l7 60 -60 16 c-92 26 -88 29 -88
-70z"/>
<path d="M7560 5811 l0 -89 31 -11 c18 -6 34 -11 35 -11 2 0 4 34 4 75 0 43 4
75 10 75 6 0 10 -33 10 -80 0 -73 2 -80 20 -80 18 0 20 7 20 82 0 105 9 97 12
-11 2 -46 6 -85 10 -87 9 -6 20 91 16 146 -3 44 -3 44 -58 62 -30 9 -67 17
-82 17 l-28 1 0 -89z"/>
<path d="M7841 5824 c8 -9 10 -42 7 -94 -3 -45 -2 -82 1 -84 3 -2 18 -6 34
-10 l27 -6 0 81 c0 60 3 80 13 76 9 -3 11 -26 8 -85 -3 -69 -1 -83 13 -88 9
-4 19 -5 21 -3 2 2 6 45 10 95 8 104 13 97 -88 119 -49 11 -56 11 -46 -1z"/>
<path d="M7298 5566 l-3 -75 38 -15 37 -14 0 65 c0 47 3 64 13 60 8 -2 11 -23
9 -70 -4 -62 -2 -67 17 -67 16 0 21 6 21 28 0 15 3 50 6 78 l6 51 -59 16 c-33
10 -64 17 -70 17 -7 0 -13 -29 -15 -74z"/>
<path d="M7550 5511 c0 -38 -3 -76 -6 -84 -3 -10 5 -18 27 -26 18 -6 36 -11
40 -11 5 0 9 29 9 65 0 52 3 65 16 65 13 0 15 -12 13 -72 -2 -59 1 -74 13 -76
17 -3 27 31 30 102 1 23 4 6 8 -39 l6 -80 2 65 c1 36 5 75 8 87 5 19 -1 24
-63 43 -37 11 -76 23 -85 26 -16 5 -18 -3 -18 -65z"/>
<path d="M7815 5413 c0 -85 0 -86 27 -94 15 -4 29 -4 32 -1 3 3 6 32 6 64 0
32 4 58 10 58 6 0 10 -30 10 -69 0 -65 1 -69 25 -73 25 -5 25 -4 27 63 1 38 2
76 2 86 1 11 -15 22 -49 34 -90 32 -90 31 -90 -68z"/>
<path d="M7290 5282 c0 -16 -3 -63 -6 -104 l-7 -75 31 -11 c17 -6 33 -8 36 -5
3 4 6 46 6 95 0 57 4 88 11 88 7 0 10 -32 7 -100 l-3 -100 28 -9 27 -10 0 78
c0 43 3 92 6 109 6 30 5 31 -61 51 -37 12 -69 21 -71 21 -2 0 -4 -13 -4 -28z
m107 -159 c-2 -21 -4 -4 -4 37 0 41 2 58 4 38 2 -21 2 -55 0 -75z"/>
<path d="M7535 5156 c-10 -116 -6 -138 28 -149 16 -5 30 -7 32 -5 2 2 7 45 11
96 4 51 11 92 17 92 6 0 7 -39 2 -106 -7 -100 -6 -106 11 -102 11 2 24 -3 30
-11 9 -11 13 12 18 97 4 62 8 115 7 119 0 4 -34 17 -75 29 l-74 21 -7 -81z"/>
<path d="M7796 5082 c-11 -132 -9 -147 19 -160 14 -7 30 -12 35 -12 6 0 10 41
10 94 0 82 7 116 21 102 2 -3 2 -50 -1 -106 -5 -96 -4 -103 15 -110 18 -7 21
-2 26 59 4 36 7 89 8 116 l1 51 -64 21 -63 20 -7 -75z"/>
<path d="M6612 5063 c3 -88 3 -88 31 -91 l27 -3 1 68 c1 80 17 59 18 -24 1
-28 6 -55 12 -58 15 -10 16 -8 23 73 l6 72 -56 25 c-31 14 -58 25 -61 25 -2 0
-2 -39 -1 -87z"/>
<path d="M6788 5056 c-4 -20 -1 -26 13 -26 16 0 19 -8 19 -59 0 -44 4 -60 16
-65 38 -15 44 -8 44 55 0 79 17 68 19 -13 1 -57 6 -77 15 -67 2 2 5 40 7 84
l4 79 -50 12 c-27 6 -57 15 -66 18 -12 5 -18 0 -21 -18z"/>
<path d="M7020 4943 l0 -88 40 -17 40 -17 0 80 c0 46 4 79 10 79 6 0 10 -35
10 -84 0 -73 2 -84 19 -89 16 -4 20 3 25 41 3 24 6 65 6 89 0 42 -2 44 -43 62
-23 10 -57 22 -75 26 l-32 7 0 -89z m27 -60 c-2 -16 -4 -5 -4 22 0 28 2 40 4
28 2 -13 2 -35 0 -50z"/>
<path d="M7266 4898 c-11 -109 -9 -125 18 -132 13 -3 31 -9 40 -12 14 -5 16 4
16 70 0 44 4 76 10 76 6 0 10 -35 10 -85 0 -47 4 -85 9 -85 5 0 16 -3 24 -6
13 -5 16 10 19 90 l3 96 -45 19 c-25 10 -57 21 -71 25 -26 6 -26 4 -33 -56z
m17 -99 c-4 -4 -6 24 -3 64 l5 72 3 -64 c2 -35 -1 -68 -5 -72z"/>
<path d="M7516 4863 c4 -10 9 -54 9 -97 1 -80 7 -91 47 -95 4 -1 8 33 10 74 2
44 7 74 13 73 6 -2 9 -37 8 -84 -2 -82 -2 -82 25 -87 15 -3 28 -4 29 -3 2 1 4
45 5 96 l3 95 -60 22 c-76 28 -100 29 -89 6z"/>
<path d="M6600 4781 c0 -68 1 -69 30 -80 l30 -10 0 55 c0 29 5 54 10 54 6 0
10 -26 10 -59 0 -54 8 -71 34 -71 2 0 2 32 1 72 l-2 72 -39 17 c-70 31 -74 28
-74 -50z"/>
<path d="M7770 4747 c0 -30 -3 -74 -6 -98 -6 -43 -5 -45 28 -57 46 -16 50 -16
48 11 -6 66 1 137 13 137 9 0 11 -23 9 -90 -3 -83 -2 -90 16 -90 17 0 20 10
26 93 7 104 4 109 -67 128 -21 5 -45 13 -53 16 -11 4 -14 -6 -14 -50z"/>
<path d="M6806 4713 l1 -77 51 -17 50 -17 4 76 3 75 -40 18 c-68 31 -70 29
-69 -58z m84 -41 c0 -26 -4 -41 -10 -37 -5 3 -10 30 -10 58 0 37 3 48 10 37 5
-8 10 -34 10 -58z"/>
<path d="M7008 4645 c-3 -77 -1 -84 17 -88 11 -2 28 -8 38 -12 15 -6 17 0 17
54 0 34 4 61 10 61 6 0 10 -28 10 -64 0 -63 7 -76 41 -76 5 0 9 35 9 79 0 66
-3 80 -17 84 -10 3 -41 15 -70 26 l-52 20 -3 -84z"/>
<path d="M7501 4704 c0 -11 3 -14 6 -6 3 7 2 16 -1 19 -3 4 -6 -2 -5 -13z"/>
<path d="M7252 4558 l3 -81 38 -13 37 -13 0 65 c0 48 3 65 13 61 8 -3 11 -23
9 -69 -3 -55 -1 -66 14 -72 9 -3 18 -5 19 -4 2 2 4 39 6 83 l4 80 -60 22 c-89
33 -86 35 -83 -59z"/>
<path d="M7490 4477 l0 -83 33 -12 c18 -7 36 -12 40 -12 4 0 7 27 7 60 0 41 4
60 13 60 9 0 11 -19 9 -69 -3 -62 -2 -69 17 -74 12 -3 22 -2 24 1 2 4 5 43 6
87 l3 81 -69 22 c-38 12 -72 22 -76 22 -4 0 -7 -37 -7 -83z"/>
<path d="M7738 4416 c-1 -36 -2 -75 -2 -87 -1 -16 9 -24 39 -35 22 -7 41 -14
43 -14 1 0 2 27 2 61 0 40 4 58 11 54 6 -4 9 -32 7 -68 -2 -50 0 -62 13 -65
19 -3 29 40 29 123 l0 50 -58 19 c-31 10 -63 21 -69 23 -10 4 -13 -13 -15 -61z"/>
<path d="M6998 4364 l-3 -76 30 -13 c17 -7 32 -11 34 -9 2 1 3 30 2 63 0 34 4
61 9 61 11 0 14 -23 11 -91 -1 -41 1 -47 21 -52 12 -4 23 -5 24 -4 1 1 4 36 6
78 l5 75 -61 22 c-34 12 -64 22 -68 22 -3 0 -8 -34 -10 -76z"/>
<path d="M7230 4281 l0 -81 36 -15 c20 -8 39 -15 43 -15 3 0 4 29 3 65 -3 42
0 65 7 65 7 0 11 -26 11 -69 0 -54 4 -70 16 -75 32 -12 35 -5 32 76 l-3 81
-50 17 c-106 36 -95 42 -95 -49z"/>
<path d="M7470 4192 l0 -79 40 -16 40 -15 0 69 c0 44 4 68 10 64 6 -3 10 -37
10 -75 0 -54 3 -69 17 -74 25 -10 31 9 29 91 l-1 74 -55 20 c-89 31 -90 31
-90 -59z"/>
<path d="M6985 4068 l0 -82 33 -10 c18 -5 35 -6 39 -3 3 4 5 29 4 57 -1 28 3
50 9 50 6 0 10 -27 10 -64 0 -50 4 -65 16 -70 9 -4 18 -5 20 -3 4 4 7 157 3
160 -11 9 -110 47 -121 47 -10 0 -13 -21 -13 -82z"/>
<path d="M7220 3996 c0 -42 0 -79 -1 -83 0 -4 20 -15 45 -24 25 -8 49 -18 53
-22 3 -4 15 -7 25 -7 16 0 18 9 18 79 l0 79 -47 20 c-98 41 -93 44 -93 -42z
m87 -48 c-3 -8 -6 -5 -6 6 -1 11 2 17 5 13 3 -3 4 -12 1 -19z"/>
<path d="M2646 6555 c-56 -52 -22 -149 56 -162 32 -5 41 -1 68 25 39 40 41 88
4 131 -34 40 -88 43 -128 6z m80 -30 c4 -8 10 -13 14 -10 15 9 3 -47 -14 -63
-31 -32 -65 10 -52 64 7 27 43 34 52 9z"/>
<path d="M2700 6485 c1 -26 2 -28 11 -12 8 14 8 22 0 30 -8 8 -11 3 -11 -18z"/>
<path d="M1595 6215 c-5 -2 -29 -9 -52 -15 -26 -6 -43 -17 -43 -25 0 -18 0
-18 79 3 64 17 95 43 49 41 -12 0 -27 -2 -33 -4z"/>
<path d="M2653 6045 c-7 -20 -9 -43 -6 -51 3 -8 0 -14 -6 -14 -6 0 -8 -7 -5
-15 4 -8 1 -15 -5 -15 -15 0 -14 -37 1 -42 7 -3 6 -7 -5 -11 -13 -5 -17 -1
-17 17 0 45 -61 72 -100 45 -11 -8 -4 -9 28 -5 39 6 43 4 52 -20 13 -33 13
-74 0 -74 -26 0 -75 -72 -66 -97 5 -12 1 -14 -21 -9 -20 5 -24 4 -13 -3 8 -6
12 -12 10 -14 -17 -14 -146 -57 -202 -67 -42 -8 -65 -16 -61 -22 4 -7 -4 -9
-21 -6 -15 3 -24 3 -21 0 7 -7 -96 -38 -190 -56 l-70 -14 64 -1 c47 -1 113 12
250 48 102 27 220 57 261 66 102 22 149 45 189 90 33 38 34 39 28 114 -7 84
-21 136 -46 170 l-17 22 -11 -36z m-3 -115 c0 -5 -5 -10 -11 -10 -5 0 -7 5 -4
10 3 6 8 10 11 10 2 0 4 -4 4 -10z"/>
<path d="M1988 6063 c7 -3 16 -2 19 1 4 3 -2 6 -13 5 -11 0 -14 -3 -6 -6z"/>
<path d="M2891 5459 c-18 -17 -22 -28 -17 -53 9 -46 39 -67 76 -55 45 16 51
67 12 112 -20 23 -43 22 -71 -4z m49 -14 c8 -9 8 -15 2 -15 -6 0 -9 -15 -7
-37 l5 -38 -12 33 c-6 17 -15 32 -19 32 -12 0 -11 -17 1 -25 6 -3 10 -14 10
-23 -1 -15 -2 -15 -15 2 -21 28 -20 67 2 59 12 -5 15 -2 10 10 -8 21 6 22 23
2z"/>
<path d="M2744 5315 c-10 -8 -14 -14 -9 -14 6 0 19 6 29 14 11 8 15 15 10 15
-6 0 -19 -7 -30 -15z"/>
<path d="M2520 5254 l-45 -14 40 6 c22 3 47 10 55 15 21 12 3 10 -50 -7z"/>
<path d="M3003 5196 c9 -54 27 -71 27 -24 0 21 -7 41 -17 49 -15 13 -16 11
-10 -25z"/>
<path d="M2920 5188 c0 -55 22 -85 48 -69 7 4 5 19 -8 49 -21 46 -40 55 -40
20z"/>
<path d="M2835 5163 c4 -10 10 -30 13 -45 2 -16 8 -28 13 -28 12 0 11 47 -1
71 -13 24 -35 26 -25 2z"/>
<path d="M2743 5119 c3 -23 10 -46 16 -52 19 -19 30 5 24 51 -4 33 -10 42 -26
42 -17 0 -19 -5 -14 -41z"/>
<path d="M2613 5123 c-8 -3 -7 -16 4 -49 8 -24 19 -41 24 -38 6 4 6 11 -1 19
-6 7 -8 20 -4 28 7 20 -7 45 -23 40z"/>
<path d="M2653 5092 c-1 -29 0 -33 7 -17 7 17 9 17 9 3 1 -10 6 -18 11 -18 16
0 11 36 -7 53 -17 14 -18 13 -20 -21z"/>
<path d="M2392 5068 c-18 -18 -15 -52 7 -72 39 -35 83 0 65 51 -10 31 -50 43
-72 21z"/>
<path d="M2272 5041 c-21 -13 -11 -71 15 -88 19 -13 24 -12 42 6 26 26 26 46
1 71 -22 22 -37 25 -58 11z"/>
<path d="M2530 5025 c0 -8 4 -15 10 -15 5 0 7 7 4 15 -4 8 -8 15 -10 15 -2 0
-4 -7 -4 -15z"/>
<path d="M2150 4990 c-21 -40 12 -80 54 -64 19 7 22 54 4 72 -18 18 -46 14
-58 -8z m33 -40 c3 -11 2 -20 -3 -20 -4 0 -10 11 -12 25 -6 29 7 25 15 -5z"/>
<path d="M2025 4967 c-14 -11 -16 -21 -11 -50 8 -43 16 -50 51 -41 30 7 34 46
9 82 -18 26 -24 27 -49 9z m26 -62 c5 4 9 2 9 -4 0 -5 -5 -13 -10 -16 -13 -8
-33 43 -23 58 5 7 9 1 11 -16 2 -15 8 -25 13 -22z"/>
<path d="M3030 4925 c-7 -14 -11 -28 -8 -31 4 -3 9 4 13 15 4 15 15 21 36 21
18 0 28 -4 24 -10 -7 -11 8 -14 18 -3 10 9 -25 32 -49 33 -12 0 -26 -10 -34
-25z"/>
<path d="M1896 4931 c-7 -11 4 -70 14 -76 14 -9 40 7 40 23 0 13 -3 12 -16 -4
-12 -15 -15 -16 -10 -2 3 9 0 19 -7 22 -7 2 -1 5 13 6 l25 2 -25 8 c-18 6 -20
8 -7 9 10 1 15 6 12 11 -8 12 -32 13 -39 1z"/>
<path d="M1800 4891 c-19 -36 24 -94 45 -61 3 5 0 7 -9 4 -17 -7 -39 28 -30
50 3 8 13 17 22 19 15 4 15 5 0 6 -10 0 -22 -8 -28 -18z"/>
<path d="M3118 4904 c-4 -4 -5 -17 -2 -29 7 -28 -27 -55 -59 -48 -20 4 -21 4
-3 -7 37 -24 85 24 74 75 -1 9 -6 13 -10 9z"/>
<path d="M2860 4896 c0 -2 13 -6 29 -8 17 -2 28 -1 25 4 -5 8 -54 12 -54 4z"/>
<path d="M3024 4869 c-3 -6 -1 -16 6 -22 10 -9 11 -9 5 2 -4 8 -2 17 6 22 9 6
10 9 2 9 -6 0 -15 -5 -19 -11z"/>
<path d="M2925 4791 c-3 -5 -29 -17 -58 -26 -28 -10 -56 -21 -62 -26 -5 -5 13
-2 40 7 28 8 58 18 67 21 9 3 19 11 22 19 6 16 0 19 -9 5z"/>
<path d="M2750 4729 c-14 -5 -54 -18 -90 -29 -74 -23 -47 -21 50 5 36 9 69 21
75 26 11 11 0 10 -35 -2z"/>
<path d="M3113 4693 c-29 -10 -3 -106 26 -101 24 5 27 70 4 90 -10 8 -24 13
-30 11z"/>
<path d="M2508 4653 c7 -3 16 -2 19 1 4 3 -2 6 -13 5 -11 0 -14 -3 -6 -6z"/>
<path d="M3020 4615 c0 -28 4 -35 20 -35 21 0 24 10 14 48 -10 36 -34 27 -34
-13z"/>
<path d="M2930 4615 c0 -33 20 -75 37 -75 18 0 16 14 -7 60 -24 46 -30 50 -30
15z"/>
<path d="M2358 4613 c6 -2 18 -2 25 0 6 3 1 5 -13 5 -14 0 -19 -2 -12 -5z"/>
<path d="M2825 4599 c-12 -18 4 -59 23 -59 14 0 15 -2 2 -10 -18 -11 -7 -25
15 -17 17 7 20 49 5 78 -12 21 -35 25 -45 8z"/>
<path d="M2717 4563 c-4 -3 -7 -23 -7 -43 0 -37 0 -37 33 -31 35 7 48 40 27
67 -13 15 -42 19 -53 7z"/>
<path d="M2145 4550 c-13 -6 -15 -9 -5 -9 8 0 22 4 30 9 18 12 2 12 -25 0z"/>
<path d="M2098 4533 c7 -3 16 -2 19 1 4 3 -2 6 -13 5 -11 0 -14 -3 -6 -6z"/>
<path d="M2620 4530 c0 -5 5 -10 11 -10 5 0 7 5 4 10 -3 6 -8 10 -11 10 -2 0
-4 -4 -4 -10z"/>
<path d="M2058 4523 c7 -3 16 -2 19 1 4 3 -2 6 -13 5 -11 0 -14 -3 -6 -6z"/>
<path d="M2630 4503 c0 -4 5 -15 10 -23 8 -13 10 -13 10 2 0 9 -4 20 -10 23
-5 3 -10 3 -10 -2z"/>
<path d="M2502 4460 c0 -14 2 -19 5 -12 2 6 2 18 0 25 -3 6 -5 1 -5 -13z"/>
<path d="M2550 4470 c0 -5 5 -10 10 -10 6 0 10 5 10 10 0 6 -4 10 -10 10 -5 0
-10 -4 -10 -10z"/>
<path d="M2137 4403 c-16 -4 -18 -11 -12 -41 9 -49 18 -56 52 -45 24 9 28 15
26 43 -2 44 -19 55 -66 43z m40 -65 c-3 -7 -5 -2 -5 12 0 14 2 19 5 13 2 -7 2
-19 0 -25z"/>
<path d="M2000 4363 c0 -17 17 -33 31 -30 8 2 11 2 6 0 -4 -3 -5 -9 -2 -14 4
-5 -1 -6 -9 -3 -11 4 -13 0 -9 -16 8 -29 47 -23 51 7 5 34 -15 63 -43 63 -14
0 -25 -3 -25 -7z"/>
<path d="M1927 4343 c-13 -12 -7 -54 7 -59 8 -3 12 -12 9 -20 -3 -8 0 -14 6
-14 16 0 14 75 -2 89 -8 6 -17 8 -20 4z"/>
<path d="M2858 4312 l-118 -35 0 -85 c0 -63 3 -83 13 -80 6 3 70 24 141 48
138 46 166 64 166 109 0 37 -35 81 -63 80 -12 -1 -75 -17 -139 -37z m-70 -72
c-7 -10 -14 -18 -15 -16 -6 6 9 36 18 36 5 0 4 -9 -3 -20z m59 14 c-3 -3 -12
-4 -19 -1 -8 3 -5 6 6 6 11 1 17 -2 13 -5z m-50 -61 c-3 -10 -5 -4 -5 12 0 17
2 24 5 18 2 -7 2 -21 0 -30z m136 30 c-7 -2 -19 -2 -25 0 -7 3 -2 5 12 5 14 0
19 -2 13 -5z m-6 -29 c-3 -3 -12 -4 -19 -1 -8 3 -5 6 6 6 11 1 17 -2 13 -5z"/>
<path d="M2045 4050 c-8 -13 5 -13 25 0 13 8 13 10 -2 10 -9 0 -20 -4 -23 -10z"/>
<path d="M2020 4016 c0 -2 7 -6 15 -10 8 -3 15 -1 15 4 0 6 -7 10 -15 10 -8 0
-15 -2 -15 -4z"/>
<path d="M2046 3713 c-4 -9 -1 -20 6 -24 14 -9 28 -2 28 14 0 7 -4 6 -11 -3
-9 -12 -10 -11 -6 8 6 26 -8 30 -17 5z"/>
<path d="M3690 5281 c0 -6 4 -11 9 -11 20 0 72 -66 82 -103 9 -33 8 -41 -8
-53 -10 -7 -33 -14 -50 -14 -19 0 -33 -5 -34 -12 0 -7 -5 -4 -10 7 -7 15 -8 8
-6 -27 2 -39 -1 -48 -14 -48 -9 0 -22 14 -29 30 -7 17 -21 35 -31 41 -16 8
-19 6 -19 -11 0 -12 -10 -25 -23 -31 -31 -14 -35 -59 -6 -59 12 0 36 -9 54
-20 37 -23 57 -19 80 16 8 13 35 36 58 50 23 14 48 34 56 43 21 25 6 -83 -17
-122 -23 -41 -77 -77 -114 -77 -37 0 -88 22 -113 49 -60 65 -70 73 -73 57 -6
-30 50 -115 97 -147 40 -27 53 -30 98 -27 62 5 125 43 149 89 8 17 18 64 21
104 8 97 -15 171 -71 230 -40 43 -86 67 -86 46z"/>
<path d="M3534 5232 c-12 -8 -37 -52 -32 -57 2 -1 13 13 25 31 12 19 21 34 20
34 -1 0 -7 -4 -13 -8z"/>
<path d="M6038 5153 c-2 -5 -4 -95 -3 -202 0 -191 0 -194 23 -202 l22 -8 0
199 c0 187 -1 200 -19 210 -11 5 -21 7 -23 3z"/>
<path d="M5565 4390 c-21 -33 71 -83 276 -150 142 -46 149 -47 149 -21 0 10
-6 23 -12 28 -21 16 -137 59 -238 88 -52 14 -111 35 -132 45 -21 10 -40 14
-43 10z"/>
<path d="M8777 5026 c6 -29 -14 -95 -35 -116 -9 -8 -38 -17 -66 -20 -47 -5
-49 -6 -32 -22 38 -39 98 -17 127 45 19 43 26 137 10 137 -4 0 -6 -11 -4 -24z"/>
<path d="M4578 3943 c7 -3 16 -2 19 1 4 3 -2 6 -13 5 -11 0 -14 -3 -6 -6z"/>
<path d="M4495 3923 c-22 -9 -52 -25 -67 -35 -14 -10 -33 -18 -42 -18 -9 0
-45 -12 -79 -26 -34 -15 -110 -44 -168 -64 -117 -42 -174 -68 -165 -77 3 -3
12 -1 19 5 13 11 127 54 197 73 19 6 49 17 67 25 17 8 36 14 43 14 6 0 23 9
37 20 14 11 36 20 48 20 22 0 175 66 175 75 0 9 -24 4 -65 -12z"/>
<path d="M3930 3730 c-8 -5 -11 -12 -7 -16 11 -12 -99 -59 -338 -145 -48 -17
-70 -29 -55 -29 23 -1 23 -2 -8 -15 -18 -8 -47 -14 -65 -13 -18 0 -54 -8 -82
-19 -27 -11 -95 -38 -150 -59 -55 -21 -104 -42 -110 -46 -5 -4 -17 -8 -26 -8
-10 0 -20 -4 -24 -9 -5 -10 19 -4 83 19 18 7 39 9 48 6 8 -3 12 -2 9 3 -3 5 5
12 17 16 13 3 32 10 43 15 34 16 168 61 205 69 51 12 120 42 120 52 0 5 11 9
24 9 14 0 28 5 31 10 3 6 17 10 31 10 14 0 23 4 20 8 -5 8 133 59 147 54 4 -1
30 9 57 23 40 20 50 30 50 50 0 28 0 28 -20 15z"/>
<path d="M3468 3523 c7 -3 16 -2 19 1 4 3 -2 6 -13 5 -11 0 -14 -3 -6 -6z"/>
<path d="M2930 3323 c-167 -56 -190 -65 -190 -73 0 -5 48 7 108 26 161 50 213
70 205 77 -9 9 -3 10 -123 -30z"/>
<path d="M2395 3119 c-36 -14 -55 -17 -67 -10 -13 8 -16 7 -13 -8 2 -13 -3
-18 -23 -18 -39 -1 -143 -43 -136 -55 4 -7 9 -6 14 2 6 10 8 10 12 0 2 -8 39
2 117 34 117 48 173 75 156 75 -5 0 -32 -9 -60 -20z"/>
<path d="M7990 3086 c0 -31 6 -34 13 -6 3 11 1 23 -4 26 -5 3 -9 -6 -9 -20z"/>
<path d="M3311 2324 c0 -11 3 -14 6 -6 3 7 2 16 -1 19 -3 4 -6 -2 -5 -13z"/>
<path d="M5588 1613 c7 -3 16 -2 19 1 4 3 -2 6 -13 5 -11 0 -14 -3 -6 -6z"/>
<path d="M1080 4375 c0 -5 5 -17 10 -25 5 -8 10 -10 10 -5 0 6 -5 17 -10 25
-5 8 -10 11 -10 5z"/>
<path d="M2648 4225 c-3 -14 -1 -25 3 -25 5 0 9 11 9 25 0 14 -2 25 -4 25 -2
0 -6 -11 -8 -25z"/>
<path d="M2606 3912 c-2 -4 4 -8 14 -8 10 0 16 4 14 8 -3 4 -9 8 -14 8 -5 0
-11 -4 -14 -8z"/>
<path d="M2626 3848 c3 -4 9 -8 15 -8 5 0 9 4 9 8 0 5 -7 9 -15 9 -8 0 -12 -4
-9 -9z"/>
<path d="M2885 3820 c-3 -5 3 -10 14 -10 12 0 21 5 21 10 0 6 -6 10 -14 10 -8
0 -18 -4 -21 -10z"/>
<path d="M2888 3788 c9 -9 15 -9 24 0 9 9 7 12 -12 12 -19 0 -21 -3 -12 -12z"/>
<path d="M1158 3613 c7 -3 16 -2 19 1 4 3 -2 6 -13 5 -11 0 -14 -3 -6 -6z"/>
<path d="M1186 3534 c-10 -25 1 -29 14 -5 6 12 7 21 1 21 -5 0 -12 -7 -15 -16z"/>
<path d="M1123 3471 c0 -11 5 -18 9 -15 4 3 5 11 1 19 -7 21 -12 19 -10 -4z"/>
<path d="M1150 3385 c0 -8 4 -15 10 -15 5 0 7 7 4 15 -4 8 -8 15 -10 15 -2 0
-4 -7 -4 -15z"/>
<path d="M5298 2894 c-39 -21 -35 -28 5 -8 37 19 44 24 31 24 -5 -1 -21 -8
-36 -16z"/>
<path d="M4738 2673 c6 -2 18 -2 25 0 6 3 1 5 -13 5 -14 0 -19 -2 -12 -5z"/>
<path d="M4678 2634 c-43 -28 -45 -38 -23 -134 23 -98 34 -119 74 -139 34 -18
335 -121 351 -121 4 0 30 30 57 68 27 37 63 79 80 92 l30 25 -45 53 c-41 48
-51 54 -131 78 -47 14 -142 44 -210 65 -68 21 -129 39 -135 38 -6 0 -28 -11
-48 -25z m137 -65 c66 -22 174 -55 240 -73 l119 -33 -34 -18 c-46 -24 -99 -17
-257 34 -143 46 -226 90 -217 116 8 21 15 20 149 -26z"/>
<path d="M5410 2589 c-31 -13 -36 -18 -16 -14 37 8 95 33 76 34 -8 0 -35 -9
-60 -20z"/>
<path d="M5338 2563 c7 -3 16 -2 19 1 4 3 -2 6 -13 5 -11 0 -14 -3 -6 -6z"/>
<path d="M1743 2505 c2 -26 6 -47 8 -49 22 -19 355 -176 365 -172 9 3 14 20
14 45 0 32 -5 43 -27 59 -55 38 -313 162 -339 162 -26 0 -26 -2 -21 -45z"/>
<path d="M1767 2409 c7 -7 15 -10 18 -7 3 3 -2 9 -12 12 -14 6 -15 5 -6 -5z"/>
<path d="M2430 2239 c0 -5 -4 -7 -10 -4 -5 3 -11 -4 -11 -17 -1 -13 -3 -32 -4
-44 -4 -35 28 -87 70 -115 70 -47 437 -229 461 -229 34 0 50 60 32 115 -12 36
-21 44 -103 86 -50 26 -145 75 -212 109 -67 35 -120 67 -117 71 2 4 -1 11 -7
15 -8 4 -9 3 -5 -4 11 -18 -5 -14 -42 8 -36 22 -52 25 -52 9z m254 -171 c260
-131 269 -137 260 -186 -3 -14 -6 -28 -8 -29 -5 -5 -456 230 -456 238 0 16 18
10 134 -49 64 -33 113 -55 111 -51 -3 4 1 10 7 12 8 3 6 6 -4 6 -21 1 -88 32
-88 41 0 3 -36 19 -80 35 -68 26 -80 33 -80 53 0 31 8 28 204 -70z"/>
<path d="M3545 1747 c4 -169 5 -176 20 -171 11 5 15 -1 15 -19 0 -31 17 -45
23 -20 4 14 5 13 6 -4 0 -11 16 -34 34 -49 49 -41 557 -288 569 -276 16 16 6
176 -12 197 -14 17 -229 125 -279 140 -52 16 -6 -14 122 -78 152 -77 163 -89
154 -168 -4 -28 -8 -54 -11 -56 -2 -2 -116 51 -252 119 l-249 123 -9 111 c-10
121 -2 108 -87 159 -9 6 -23 16 -31 22 -11 10 -14 5 -13 -30z m22 -29 c-3 -8
-6 -5 -6 6 -1 11 2 17 5 13 3 -3 4 -12 1 -19z m0 -110 c-3 -7 -5 -2 -5 12 0
14 2 19 5 13 2 -7 2 -19 0 -25z"/>
<path d="M4948 9162 c-10 -4 38 -6 105 -4 174 4 194 9 42 10 -71 0 -138 -2
-147 -6z"/>
<path d="M4765 9150 l-70 -6 65 -1 c36 0 79 3 95 7 26 7 27 8 5 7 -14 0 -56
-3 -95 -7z"/>
<path d="M5298 9153 c18 -2 45 -2 60 0 15 2 0 4 -33 4 -33 0 -45 -2 -27 -4z"/>
<path d="M5418 9143 c12 -2 32 -2 45 0 12 2 2 4 -23 4 -25 0 -35 -2 -22 -4z"/>
<path d="M4638 9133 c12 -2 30 -2 40 0 9 3 -1 5 -23 4 -22 0 -30 -2 -17 -4z"/>
<path d="M5545 9129 c22 -4 54 -8 70 -7 22 0 19 3 -15 9 -60 10 -108 9 -55 -2z"/>
<path d="M4558 9123 c12 -2 30 -2 40 0 9 3 -1 5 -23 4 -22 0 -30 -2 -17 -4z"/>
<path d="M4455 9110 c-27 -7 -27 -8 -5 -8 14 0 39 4 55 8 27 7 27 8 5 8 -14 0
-38 -4 -55 -8z"/>
<path d="M5663 9113 c9 -2 23 -2 30 0 6 3 -1 5 -18 5 -16 0 -22 -2 -12 -5z"/>
<path d="M4388 9093 c7 -3 16 -2 19 1 4 3 -2 6 -13 5 -11 0 -14 -3 -6 -6z"/>
<path d="M4348 9083 c7 -3 16 -2 19 1 4 3 -2 6 -13 5 -11 0 -14 -3 -6 -6z"/>
<path d="M5813 9083 c9 -2 25 -2 35 0 9 3 1 5 -18 5 -19 0 -27 -2 -17 -5z"/>
<path d="M3125 9068 c-51 -11 -112 -69 -126 -121 -42 -157 127 -265 251 -161
42 36 60 74 60 129 0 107 -82 175 -185 153z m95 -48 c32 -23 61 -91 41 -98 -6
-2 -12 -11 -12 -20 -1 -9 -5 -1 -9 18 -7 33 -7 32 -9 -15 -1 -53 -10 -67 -63
-94 -15 -8 -25 -18 -22 -23 9 -14 -46 -9 -71 8 -43 28 -59 118 -30 173 34 67
118 91 175 51z"/>
<path d="M5878 9073 c6 -2 18 -2 25 0 6 3 1 5 -13 5 -14 0 -19 -2 -12 -5z"/>
<path d="M4248 9063 c6 -2 18 -2 25 0 6 3 1 5 -13 5 -14 0 -19 -2 -12 -5z"/>
<path d="M4175 9050 c-13 -5 -14 -9 -5 -9 8 0 24 4 35 9 13 5 14 9 5 9 -8 0
-24 -4 -35 -9z"/>
<path d="M4095 9030 c-25 -11 1 -11 35 0 20 6 21 8 5 8 -11 0 -29 -3 -40 -8z"/>
<path d="M6869 9009 c-9 -18 -8 -25 8 -41 12 -11 26 -16 36 -12 19 7 33 47 22
63 -11 19 -54 12 -66 -10z"/>
<path d="M5001 8915 c-161 -45 -294 -178 -344 -342 -14 -46 -29 -76 -42 -83
-34 -19 -95 -103 -101 -139 -8 -41 10 -80 46 -99 24 -13 88 -12 275 3 69 6 49
-8 -27 -19 -31 -5 -48 -12 -48 -21 0 -11 -6 -11 -30 3 -51 29 -56 4 -12 -64
98 -152 289 -248 456 -229 78 9 198 55 259 100 145 107 221 331 173 515 -13
52 -13 55 10 90 73 111 19 187 -147 206 -44 5 -88 19 -143 47 -73 37 -86 40
-175 44 -65 2 -114 -2 -150 -12z m157 -58 c23 -11 81 -117 84 -154 3 -44 -2
-62 -17 -56 -9 3 -15 2 -13 -3 2 -5 0 -11 -4 -12 -32 -15 -280 -62 -325 -62
-21 0 -21 1 -6 57 17 68 61 155 101 202 24 28 39 36 78 41 52 6 66 5 102 -13z
m-248 -82 c-22 -35 -49 -96 -60 -136 -11 -40 -21 -73 -22 -74 -2 -1 -33 -9
-71 -17 -67 -15 -67 -15 -61 6 27 94 85 175 177 248 72 56 82 49 37 -27z m640
-30 c32 -17 41 -54 18 -72 -10 -8 -22 3 -45 38 -34 53 -27 62 27 34z m-206
-187 c8 -51 8 -51 -114 -113 -90 -45 -227 -92 -297 -102 -41 -5 -41 -5 -52 33
-6 22 -14 65 -18 96 l-6 57 34 5 c19 3 113 16 209 30 171 25 218 32 231 35 4
0 9 -18 13 -41z m-506 -115 c6 -43 14 -87 17 -99 6 -19 2 -22 -41 -28 -26 -3
-64 -6 -85 -6 -36 0 -37 1 -44 43 -3 23 -9 56 -11 72 -7 41 15 67 68 81 84 23
83 23 96 -63z m532 -21 c0 -11 -16 -27 -37 -39 -79 -44 -333 -123 -394 -123
-48 0 -33 7 72 34 111 28 234 75 304 115 28 16 51 29 53 30 1 1 2 -7 2 -17z
m-736 -63 c8 -48 5 -53 -23 -44 -24 7 -26 23 -9 60 16 35 24 31 32 -16z m841
2 c3 -5 2 -12 -3 -15 -5 -3 -9 1 -9 9 0 17 3 19 12 6z m-51 -25 c-3 -9 -10
-16 -15 -16 -6 0 -5 9 1 21 13 24 24 20 14 -5z m-71 -28 c-2 -24 -7 -50 -10
-58 -3 -8 -7 -30 -8 -48 -3 -47 -48 -89 -116 -107 -109 -29 -158 -16 -221 60
-29 34 -55 80 -40 72 15 -10 231 49 317 86 44 19 81 35 81 36 1 1 -1 -18 -3
-41z m101 24 c3 -5 -1 -9 -9 -9 -8 0 -12 4 -9 9 3 4 7 8 9 8 2 0 6 -4 9 -8z
m-47 -54 c-3 -8 -6 -5 -6 6 -1 11 2 17 5 13 3 -3 4 -12 1 -19z m-496 -70 c6
-13 26 -41 44 -63 17 -22 35 -47 40 -55 8 -13 7 -13 -8 -1 -15 12 -17 12 -11
-3 7 -19 -8 -21 -39 -4 -20 10 -21 10 -8 -5 9 -12 10 -17 2 -17 -6 0 -14 7
-18 16 -3 8 -11 13 -18 10 -8 -3 -16 2 -19 10 -4 9 -16 14 -33 12 -21 -2 -32
5 -55 37 -44 63 -30 79 74 84 29 1 40 -4 49 -21z"/>
<path d="M2319 8313 c-13 -16 -12 -17 4 -4 9 7 17 15 17 17 0 8 -8 3 -21 -13z"/>
<path d="M2264 8268 c-16 -18 -20 -26 -9 -18 31 23 48 41 43 45 -2 3 -18 -10
-34 -27z"/>
<path d="M2681 8059 l-54 -61 7 -81 c4 -44 12 -87 18 -94 21 -26 137 -103 155
-103 27 0 41 29 69 148 l25 107 -74 72 c-41 40 -78 73 -83 73 -5 0 -33 -28
-63 -61z m172 -103 c-10 -76 -39 -189 -49 -193 -14 -5 -87 42 -116 74 -10 11
-19 44 -23 83 l-6 65 42 51 42 52 56 -61 c31 -33 55 -65 54 -71z"/>
<path d="M2366 7012 c-2 -4 4 -8 14 -8 10 0 16 4 14 8 -3 4 -9 8 -14 8 -5 0
-11 -4 -14 -8z"/>
<path d="M2274 6984 c-18 -14 -18 -15 4 -4 12 6 22 13 22 15 0 8 -5 6 -26 -11z"/>
<path d="M2215 6944 c-18 -16 -23 -24 -12 -20 10 3 24 6 29 6 6 0 8 3 5 7 -4
3 -2 12 4 20 17 20 7 15 -26 -13z"/>
<path d="M9260 6291 c0 -6 4 -13 10 -16 6 -3 7 1 4 9 -7 18 -14 21 -14 7z"/>
<path d="M9323 5740 c-31 -18 -35 -27 -35 -65 0 -45 5 -56 32 -70 41 -21 64
-19 97 9 22 19 25 26 15 38 -6 8 -9 18 -5 21 3 4 4 7 0 7 -3 0 -17 -11 -30
-24 -34 -33 -76 -26 -69 12 7 40 21 52 58 49 32 -2 49 -16 22 -18 -7 0 -3 -4
10 -10 13 -5 20 -13 17 -19 -3 -5 -1 -10 4 -10 21 0 10 42 -18 71 -35 34 -54
36 -98 9z m11 -25 c-7 -16 -24 -21 -24 -6 0 8 7 13 27 20 1 1 0 -6 -3 -14z
m-23 -72 c-9 -15 -10 -14 -7 7 8 44 8 45 13 28 2 -10 0 -25 -6 -35z m94 -31
c-3 -3 -11 0 -18 7 -9 10 -8 11 6 5 10 -3 15 -9 12 -12z m-30 -2 c3 -6 -1 -7
-9 -4 -18 7 -21 14 -7 14 6 0 13 -4 16 -10z"/>
<path d="M836 5689 c-35 -28 -35 -72 0 -104 33 -30 53 -31 88 -4 33 26 34 69
4 104 -26 30 -57 32 -92 4z m82 -34 c4 -31 -21 -59 -46 -51 -25 8 -30 44 -10
64 19 19 53 10 56 -13z"/>
<path d="M9177 3969 c-17 -31 -15 -55 5 -43 6 4 8 3 5 -2 -3 -6 -1 -16 4 -24
8 -13 10 -13 18 0 5 8 7 18 4 24 -3 5 -2 6 3 3 6 -3 16 -2 23 3 11 6 7 15 -15
39 l-29 31 -18 -31z"/>
<path d="M1411 3730 c0 -8 6 -37 13 -65 8 -27 15 -43 15 -35 0 8 -6 38 -13 65
-8 28 -15 43 -15 35z"/>
</g>
</svg>
